G04*
G04 #@! TF.GenerationSoftware,Altium Limited,Altium Designer,22.1.2 (22)*
G04*
G04 Layer_Color=16711935*
%FSLAX25Y25*%
%MOIN*%
G70*
G04*
G04 #@! TF.SameCoordinates,DE848DBD-6215-49A0-A964-8366D708164F*
G04*
G04*
G04 #@! TF.FilePolarity,Negative*
G04*
G01*
G75*
%ADD37C,0.00000*%
%ADD50C,0.06800*%
%ADD51C,0.07800*%
%ADD52O,0.10249X0.05524*%
%ADD53C,0.05524*%
%ADD54C,0.07178*%
%ADD55O,0.13792X0.07887*%
%ADD56O,0.08674X0.15761*%
%ADD57C,0.07296*%
%ADD58C,0.03000*%
D37*
X69390Y114500D02*
G03*
X69390Y114500I-3390J0D01*
G01*
Y124500D02*
G03*
X69390Y124500I-3390J0D01*
G01*
D50*
X260000Y7500D02*
D03*
X270000D02*
D03*
X280000D02*
D03*
X290000D02*
D03*
X300000D02*
D03*
X310000D02*
D03*
X170000D02*
D03*
X180000D02*
D03*
X190000D02*
D03*
X200000D02*
D03*
X210000D02*
D03*
X220000D02*
D03*
X230000D02*
D03*
X240000D02*
D03*
X170000Y37500D02*
D03*
X180000D02*
D03*
X190000D02*
D03*
X200000D02*
D03*
X210000D02*
D03*
X220000D02*
D03*
X230000D02*
D03*
X240000D02*
D03*
X260000D02*
D03*
X270000D02*
D03*
X280000D02*
D03*
X290000D02*
D03*
X300000D02*
D03*
X310000D02*
D03*
X224000Y227500D02*
D03*
X214000D02*
D03*
X204000D02*
D03*
X194000D02*
D03*
X184000D02*
D03*
X174000D02*
D03*
X164000D02*
D03*
X154000D02*
D03*
X144000D02*
D03*
X134000D02*
D03*
X46000Y188500D02*
D03*
X56000D02*
D03*
X310000Y227500D02*
D03*
X300000D02*
D03*
X290000D02*
D03*
X280000D02*
D03*
X270000D02*
D03*
X260000D02*
D03*
X250000D02*
D03*
X240000D02*
D03*
X134000Y257500D02*
D03*
X144000D02*
D03*
X154000D02*
D03*
X164000D02*
D03*
X174000D02*
D03*
X184000D02*
D03*
X194000D02*
D03*
X204000D02*
D03*
X214000D02*
D03*
X224000D02*
D03*
X240000D02*
D03*
X250000D02*
D03*
X260000D02*
D03*
X270000D02*
D03*
X280000D02*
D03*
X290000D02*
D03*
X300000D02*
D03*
X310000D02*
D03*
D51*
X43000Y68500D02*
D03*
X53000D02*
D03*
X23000D02*
D03*
X33000D02*
D03*
X167500Y201500D02*
D03*
X177500D02*
D03*
X167500Y191500D02*
D03*
X177500D02*
D03*
X167500Y181500D02*
D03*
X177500D02*
D03*
X44500Y166000D02*
D03*
X54500D02*
D03*
X24500D02*
D03*
X34500D02*
D03*
X285000Y187500D02*
D03*
Y197500D02*
D03*
Y167500D02*
D03*
Y177500D02*
D03*
X113500Y137000D02*
D03*
Y147000D02*
D03*
Y117000D02*
D03*
Y127000D02*
D03*
D52*
X16875Y41331D02*
D03*
X35575D02*
D03*
Y12040D02*
D03*
X16875D02*
D03*
D53*
X39125Y20308D02*
D03*
Y26607D02*
D03*
X34386Y23458D02*
D03*
Y29757D02*
D03*
X39125Y32906D02*
D03*
D54*
X66000Y114500D02*
D03*
Y124500D02*
D03*
D55*
X46780Y220193D02*
D03*
D56*
X33000Y238500D02*
D03*
X56622D02*
D03*
D57*
X114500Y169500D02*
D03*
Y179500D02*
D03*
Y189500D02*
D03*
D58*
X86500Y222000D02*
D03*
X310500Y102000D02*
D03*
X310000Y177000D02*
D03*
X106500Y33000D02*
D03*
X68000Y28000D02*
D03*
X91500Y25000D02*
D03*
X97000Y75740D02*
D03*
X51500Y108500D02*
D03*
X279500Y109500D02*
D03*
X267500Y125500D02*
D03*
X287500Y101500D02*
D03*
X249500Y153500D02*
D03*
X233500Y137600D02*
D03*
Y131400D02*
D03*
X214500Y134500D02*
D03*
X77728Y114272D02*
D03*
X148000Y181500D02*
D03*
X112000Y226500D02*
D03*
X17600Y103000D02*
D03*
X39000Y155000D02*
D03*
X32000Y87500D02*
D03*
X22500Y132500D02*
D03*
X267500Y162500D02*
D03*
X267969Y169000D02*
D03*
X193500Y177000D02*
D03*
X157500Y181500D02*
D03*
X251000Y146000D02*
D03*
X176697Y95197D02*
D03*
X194500Y95000D02*
D03*
X209500Y88500D02*
D03*
X182697Y89197D02*
D03*
X208000Y94500D02*
D03*
X195000Y89000D02*
D03*
X161419Y94919D02*
D03*
X166919Y89419D02*
D03*
X105500Y65500D02*
D03*
X101500Y52000D02*
D03*
X201500Y129500D02*
D03*
X201000Y147000D02*
D03*
X154500Y126000D02*
D03*
X182500Y133500D02*
D03*
X212500Y129500D02*
D03*
X182500Y144000D02*
D03*
X213000Y147000D02*
D03*
X148000Y126000D02*
D03*
X147000Y51000D02*
D03*
M02*
