G04*
G04 #@! TF.GenerationSoftware,Altium Limited,Altium Designer,22.1.2 (22)*
G04*
G04 Layer_Color=8388736*
%FSLAX25Y25*%
%MOIN*%
G70*
G04*
G04 #@! TF.SameCoordinates,DE848DBD-6215-49A0-A964-8366D708164F*
G04*
G04*
G04 #@! TF.FilePolarity,Negative*
G04*
G01*
G75*
%ADD20R,0.05709X0.03937*%
%ADD21R,0.03937X0.05709*%
%ADD23R,0.02362X0.02756*%
%ADD24R,0.02756X0.02362*%
%ADD30R,0.02953X0.03937*%
%ADD37C,0.00000*%
%ADD38R,0.05524X0.06706*%
%ADD39R,0.07100X0.04100*%
%ADD40R,0.07100X0.13000*%
%ADD41R,0.07900X0.05200*%
%ADD42R,0.06000X0.02200*%
%ADD43R,0.02200X0.06000*%
%ADD44R,0.03950X0.03950*%
%ADD45O,0.09461X0.03200*%
%ADD46R,0.03950X0.03950*%
%ADD47R,0.04137X0.02956*%
%ADD48R,0.05524X0.06311*%
%ADD49R,0.05200X0.07900*%
%ADD50C,0.06800*%
%ADD51C,0.07800*%
%ADD52O,0.10249X0.05524*%
%ADD53C,0.05524*%
%ADD54C,0.07178*%
%ADD55O,0.13792X0.07887*%
%ADD56O,0.08674X0.15761*%
%ADD57C,0.07296*%
%ADD58C,0.03000*%
D20*
X97000Y63000D02*
D03*
Y70480D02*
D03*
X147000Y64740D02*
D03*
Y57260D02*
D03*
D21*
X238260Y184000D02*
D03*
X245740D02*
D03*
X201240D02*
D03*
X193760D02*
D03*
X107260Y81500D02*
D03*
X114740D02*
D03*
X24740Y96000D02*
D03*
X17260D02*
D03*
X45240Y88000D02*
D03*
X37760D02*
D03*
X107520Y93500D02*
D03*
X115000D02*
D03*
X46000Y148500D02*
D03*
X38520D02*
D03*
X17760Y139000D02*
D03*
X25240D02*
D03*
X254260Y126000D02*
D03*
X261740D02*
D03*
X188020Y133500D02*
D03*
X195500D02*
D03*
D23*
X317032Y180500D02*
D03*
X320969D02*
D03*
X316563Y105500D02*
D03*
X320500D02*
D03*
X96031Y47500D02*
D03*
X99968D02*
D03*
X99468Y24500D02*
D03*
X95531D02*
D03*
X255532Y146000D02*
D03*
X259469D02*
D03*
X262469Y169000D02*
D03*
X258531D02*
D03*
X192968Y144000D02*
D03*
X189032D02*
D03*
D24*
X82000Y230937D02*
D03*
Y227000D02*
D03*
Y246500D02*
D03*
Y250437D02*
D03*
X147000Y40031D02*
D03*
Y43968D02*
D03*
D30*
X188488Y152500D02*
D03*
X194000D02*
D03*
D37*
X69390Y114500D02*
G03*
X69390Y114500I-3390J0D01*
G01*
Y124500D02*
G03*
X69390Y124500I-3390J0D01*
G01*
D38*
X324406Y93492D02*
D03*
X312595Y67508D02*
D03*
X324406D02*
D03*
X312595Y93492D02*
D03*
X324905Y169492D02*
D03*
X313094Y143508D02*
D03*
X324905D02*
D03*
X313094Y169492D02*
D03*
X93094Y227008D02*
D03*
X104905Y252992D02*
D03*
X93094D02*
D03*
X104905Y227008D02*
D03*
D39*
X44600Y126600D02*
D03*
Y117500D02*
D03*
Y108400D02*
D03*
D40*
X19400Y117500D02*
D03*
D41*
X23500Y183600D02*
D03*
Y195400D02*
D03*
D42*
X239493Y125100D02*
D03*
Y128200D02*
D03*
Y131400D02*
D03*
Y134500D02*
D03*
Y137700D02*
D03*
Y140800D02*
D03*
X207093Y147100D02*
D03*
Y144000D02*
D03*
Y140800D02*
D03*
Y137700D02*
D03*
Y134500D02*
D03*
Y131400D02*
D03*
Y128200D02*
D03*
Y125100D02*
D03*
X239493Y147100D02*
D03*
Y144000D02*
D03*
D43*
X234293Y152300D02*
D03*
X231193D02*
D03*
X227993D02*
D03*
X224893D02*
D03*
X221693D02*
D03*
X218593D02*
D03*
X215393D02*
D03*
X212293D02*
D03*
Y119900D02*
D03*
X215393D02*
D03*
X218593D02*
D03*
X221693D02*
D03*
X224893D02*
D03*
X227993D02*
D03*
X231193D02*
D03*
X234293D02*
D03*
D44*
X53000Y93906D02*
D03*
Y88000D02*
D03*
X53500Y143047D02*
D03*
Y148953D02*
D03*
D45*
X112800Y65500D02*
D03*
Y60500D02*
D03*
Y55500D02*
D03*
Y50500D02*
D03*
Y45500D02*
D03*
Y40500D02*
D03*
Y35500D02*
D03*
Y30500D02*
D03*
X136200D02*
D03*
Y35500D02*
D03*
Y40500D02*
D03*
Y45500D02*
D03*
Y50500D02*
D03*
Y55500D02*
D03*
Y60500D02*
D03*
Y65500D02*
D03*
D46*
X140000Y81000D02*
D03*
X134095D02*
D03*
X140047Y93500D02*
D03*
X134142D02*
D03*
X195047Y195500D02*
D03*
X200953D02*
D03*
X245953Y196000D02*
D03*
X240047D02*
D03*
D47*
X74923Y31740D02*
D03*
Y28000D02*
D03*
Y24260D02*
D03*
X84224D02*
D03*
Y28000D02*
D03*
Y31740D02*
D03*
D48*
X94807Y39662D02*
D03*
Y31001D02*
D03*
X101500Y39662D02*
D03*
Y31000D02*
D03*
X254457Y153669D02*
D03*
X261150Y162330D02*
D03*
Y153668D02*
D03*
X254457Y162330D02*
D03*
D49*
X109900Y13000D02*
D03*
X98100D02*
D03*
X265400Y136500D02*
D03*
X253600D02*
D03*
D50*
X260000Y7500D02*
D03*
X270000D02*
D03*
X280000D02*
D03*
X290000D02*
D03*
X300000D02*
D03*
X310000D02*
D03*
X170000D02*
D03*
X180000D02*
D03*
X190000D02*
D03*
X200000D02*
D03*
X210000D02*
D03*
X220000D02*
D03*
X230000D02*
D03*
X240000D02*
D03*
X170000Y37500D02*
D03*
X180000D02*
D03*
X190000D02*
D03*
X200000D02*
D03*
X210000D02*
D03*
X220000D02*
D03*
X230000D02*
D03*
X240000D02*
D03*
X260000D02*
D03*
X270000D02*
D03*
X280000D02*
D03*
X290000D02*
D03*
X300000D02*
D03*
X310000D02*
D03*
X224000Y227500D02*
D03*
X214000D02*
D03*
X204000D02*
D03*
X194000D02*
D03*
X184000D02*
D03*
X174000D02*
D03*
X164000D02*
D03*
X154000D02*
D03*
X144000D02*
D03*
X134000D02*
D03*
X46000Y188500D02*
D03*
X56000D02*
D03*
X310000Y227500D02*
D03*
X300000D02*
D03*
X290000D02*
D03*
X280000D02*
D03*
X270000D02*
D03*
X260000D02*
D03*
X250000D02*
D03*
X240000D02*
D03*
X134000Y257500D02*
D03*
X144000D02*
D03*
X154000D02*
D03*
X164000D02*
D03*
X174000D02*
D03*
X184000D02*
D03*
X194000D02*
D03*
X204000D02*
D03*
X214000D02*
D03*
X224000D02*
D03*
X240000D02*
D03*
X250000D02*
D03*
X260000D02*
D03*
X270000D02*
D03*
X280000D02*
D03*
X290000D02*
D03*
X300000D02*
D03*
X310000D02*
D03*
D51*
X43000Y68500D02*
D03*
X53000D02*
D03*
X23000D02*
D03*
X33000D02*
D03*
X167500Y201500D02*
D03*
X177500D02*
D03*
X167500Y191500D02*
D03*
X177500D02*
D03*
X167500Y181500D02*
D03*
X177500D02*
D03*
X44500Y166000D02*
D03*
X54500D02*
D03*
X24500D02*
D03*
X34500D02*
D03*
X285000Y187500D02*
D03*
Y197500D02*
D03*
Y167500D02*
D03*
Y177500D02*
D03*
X113500Y137000D02*
D03*
Y147000D02*
D03*
Y117000D02*
D03*
Y127000D02*
D03*
D52*
X16875Y41331D02*
D03*
X35575D02*
D03*
Y12040D02*
D03*
X16875D02*
D03*
D53*
X39125Y20308D02*
D03*
Y26607D02*
D03*
X34386Y23458D02*
D03*
Y29757D02*
D03*
X39125Y32906D02*
D03*
D54*
X66000Y114500D02*
D03*
Y124500D02*
D03*
D55*
X46780Y220193D02*
D03*
D56*
X33000Y238500D02*
D03*
X56622D02*
D03*
D57*
X114500Y169500D02*
D03*
Y179500D02*
D03*
Y189500D02*
D03*
D58*
X86500Y222000D02*
D03*
X310500Y102000D02*
D03*
X310000Y177000D02*
D03*
X106500Y33000D02*
D03*
X68000Y28000D02*
D03*
X91500Y25000D02*
D03*
X97000Y75740D02*
D03*
X51500Y108500D02*
D03*
X279500Y109500D02*
D03*
X267500Y125500D02*
D03*
X287500Y101500D02*
D03*
X249500Y153500D02*
D03*
X233500Y137600D02*
D03*
Y131400D02*
D03*
X214500Y134500D02*
D03*
X77728Y114272D02*
D03*
X148000Y181500D02*
D03*
X112000Y226500D02*
D03*
X17600Y103000D02*
D03*
X39000Y155000D02*
D03*
X32000Y87500D02*
D03*
X22500Y132500D02*
D03*
X267500Y162500D02*
D03*
X267969Y169000D02*
D03*
X193500Y177000D02*
D03*
X157500Y181500D02*
D03*
X251000Y146000D02*
D03*
X176697Y95197D02*
D03*
X194500Y95000D02*
D03*
X209500Y88500D02*
D03*
X182697Y89197D02*
D03*
X208000Y94500D02*
D03*
X195000Y89000D02*
D03*
X161419Y94919D02*
D03*
X166919Y89419D02*
D03*
X105500Y65500D02*
D03*
X101500Y52000D02*
D03*
X201500Y129500D02*
D03*
X201000Y147000D02*
D03*
X154500Y126000D02*
D03*
X182500Y133500D02*
D03*
X212500Y129500D02*
D03*
X182500Y144000D02*
D03*
X213000Y147000D02*
D03*
X148000Y126000D02*
D03*
X147000Y51000D02*
D03*
M02*
