M48
;Layer_Color=9474304
;FILE_FORMAT=2:5
INCH,LZ
;TYPE=PLATED
T1F00S00C0.01200
T2F00S00C0.03150
T5F00S00C0.04000
T6F00S00C0.04016
T7F00S00C0.04331
%
T01
X0068Y0028
X00915Y0025
X01065Y0033
X01015Y0052
X01055Y00655
X0147Y0051
X02125Y01295
X02145Y01345
X0213Y0147
X02335Y01376
Y01314
X0251Y0146
X02495Y01535
X02675Y01625
X0267969Y0169
X02675Y01255
X02795Y01095
X02875Y01015
X03105Y0102
X031Y0177
X01935
X0201Y0147
X02015Y01295
X01825Y01335
Y0144
X01545Y0126
X0148
X0161419Y0094919
X0166919Y0089419
X0176697Y0095197
X0182697Y0089197
X0195Y0089
X01945Y0095
X0208Y00945
X02095Y00885
X0097Y007574
X0077728Y0114272
X00865Y0222
X0112Y02265
X0148Y01815
X01575
X0039Y0155
X00225Y01325
X00176Y0103
X0032Y00875
X00515Y01085
T02
X0034386Y0023458
Y0029757
X0039125Y0032906
Y0026607
Y0020308
T05
X0023Y00685
X0033
X0043
X0053
X0285Y01675
Y01775
Y01875
Y01975
X01135Y0147
Y0137
Y0127
Y0117
X00545Y0166
X00445
X00345
X00245
T06
X0066Y01145
Y01245
T07
X017Y00075
X018
X019
X02
X021
Y00375
X02
X019
X018
X017
X022
X023
X024
X026
X027
X028
X029
X03
X031
Y00075
X03
X029
X028
X027
X026
X024
X023
X022
X0224Y02275
X0214
X024
X025
X026
X027
X028
X029
X03
X031
X0204
X0194
X0184
X0174
X0164
X0154
X0144
X0134
X01145Y01895
Y01795
Y01695
X01675Y01815
Y01915
Y02015
X01775
Y01915
Y01815
X0056Y01885
X0046
X0134Y02575
X0144
X0154
X0164
X0174
X0184
X0194
X0204
X0214
X0224
X024
X025
X026
X027
X028
X029
X03
X031
M30
