G04*
G04 #@! TF.GenerationSoftware,Altium Limited,Altium Designer,22.1.2 (22)*
G04*
G04 Layer_Color=8421504*
%FSLAX25Y25*%
%MOIN*%
G70*
G04*
G04 #@! TF.SameCoordinates,DE848DBD-6215-49A0-A964-8366D708164F*
G04*
G04*
G04 #@! TF.FilePolarity,Positive*
G04*
G01*
G75*
%ADD20R,0.05709X0.03937*%
%ADD21R,0.03937X0.05709*%
%ADD22R,0.04724X0.05906*%
%ADD23R,0.02362X0.02756*%
%ADD24R,0.02756X0.02362*%
%ADD25R,0.06300X0.03300*%
%ADD26R,0.06300X0.12200*%
%ADD27R,0.07100X0.04400*%
%ADD28R,0.05800X0.02000*%
%ADD29R,0.02000X0.05800*%
%ADD30R,0.02953X0.03937*%
%ADD31R,0.03150X0.03150*%
%ADD32O,0.08661X0.02400*%
%ADD33R,0.03150X0.03150*%
%ADD34R,0.03937X0.02756*%
%ADD35R,0.04724X0.05511*%
%ADD36R,0.04400X0.07100*%
D20*
X97000Y63000D02*
D03*
Y70480D02*
D03*
X147000Y64740D02*
D03*
Y57260D02*
D03*
D21*
X238260Y184000D02*
D03*
X245740D02*
D03*
X201240D02*
D03*
X193760D02*
D03*
X107260Y81500D02*
D03*
X114740D02*
D03*
X24740Y96000D02*
D03*
X17260D02*
D03*
X45240Y88000D02*
D03*
X37760D02*
D03*
X107520Y93500D02*
D03*
X115000D02*
D03*
X46000Y148500D02*
D03*
X38520D02*
D03*
X17760Y139000D02*
D03*
X25240D02*
D03*
X254260Y126000D02*
D03*
X261740D02*
D03*
X188020Y133500D02*
D03*
X195500D02*
D03*
D22*
X324406Y93492D02*
D03*
X312595Y67508D02*
D03*
X324406D02*
D03*
X312595Y93492D02*
D03*
X324905Y169492D02*
D03*
X313094Y143508D02*
D03*
X324905D02*
D03*
X313094Y169492D02*
D03*
X93094Y227008D02*
D03*
X104905Y252992D02*
D03*
X93094D02*
D03*
X104905Y227008D02*
D03*
D23*
X317032Y180500D02*
D03*
X320969D02*
D03*
X316563Y105500D02*
D03*
X320500D02*
D03*
X96031Y47500D02*
D03*
X99968D02*
D03*
X99468Y24500D02*
D03*
X95531D02*
D03*
X255532Y146000D02*
D03*
X259469D02*
D03*
X262469Y169000D02*
D03*
X258531D02*
D03*
X192968Y144000D02*
D03*
X189032D02*
D03*
D24*
X82000Y230937D02*
D03*
Y227000D02*
D03*
Y246500D02*
D03*
Y250437D02*
D03*
X147000Y40031D02*
D03*
Y43968D02*
D03*
D25*
X44600Y126600D02*
D03*
Y117500D02*
D03*
Y108400D02*
D03*
D26*
X19400Y117500D02*
D03*
D27*
X23500Y183600D02*
D03*
Y195400D02*
D03*
D28*
X239493Y125100D02*
D03*
Y128200D02*
D03*
Y131400D02*
D03*
Y134500D02*
D03*
Y137700D02*
D03*
Y140800D02*
D03*
X207093Y147100D02*
D03*
Y144000D02*
D03*
Y140800D02*
D03*
Y137700D02*
D03*
Y134500D02*
D03*
Y131400D02*
D03*
Y128200D02*
D03*
Y125100D02*
D03*
X239493Y147100D02*
D03*
Y144000D02*
D03*
D29*
X234293Y152300D02*
D03*
X231193D02*
D03*
X227993D02*
D03*
X224893D02*
D03*
X221693D02*
D03*
X218593D02*
D03*
X215393D02*
D03*
X212293D02*
D03*
Y119900D02*
D03*
X215393D02*
D03*
X218593D02*
D03*
X221693D02*
D03*
X224893D02*
D03*
X227993D02*
D03*
X231193D02*
D03*
X234293D02*
D03*
D30*
X188488Y152500D02*
D03*
X194000D02*
D03*
D31*
X53000Y93906D02*
D03*
Y88000D02*
D03*
X53500Y143047D02*
D03*
Y148953D02*
D03*
D32*
X112800Y65500D02*
D03*
Y60500D02*
D03*
Y55500D02*
D03*
Y50500D02*
D03*
Y45500D02*
D03*
Y40500D02*
D03*
Y35500D02*
D03*
Y30500D02*
D03*
X136200D02*
D03*
Y35500D02*
D03*
Y40500D02*
D03*
Y45500D02*
D03*
Y50500D02*
D03*
Y55500D02*
D03*
Y60500D02*
D03*
Y65500D02*
D03*
D33*
X140000Y81000D02*
D03*
X134095D02*
D03*
X140047Y93500D02*
D03*
X134142D02*
D03*
X195047Y195500D02*
D03*
X200953D02*
D03*
X245953Y196000D02*
D03*
X240047D02*
D03*
D34*
X74923Y31740D02*
D03*
Y28000D02*
D03*
Y24260D02*
D03*
X84224D02*
D03*
Y28000D02*
D03*
Y31740D02*
D03*
D35*
X94807Y39662D02*
D03*
Y31001D02*
D03*
X101500Y39662D02*
D03*
Y31000D02*
D03*
X254457Y153669D02*
D03*
X261150Y162330D02*
D03*
Y153668D02*
D03*
X254457Y162330D02*
D03*
D36*
X109900Y13000D02*
D03*
X98100D02*
D03*
X265400Y136500D02*
D03*
X253600D02*
D03*
M02*
