G04*
G04 #@! TF.GenerationSoftware,Altium Limited,Altium Designer,22.1.2 (22)*
G04*
G04 Layer_Physical_Order=2*
G04 Layer_Color=16711680*
%FSLAX25Y25*%
%MOIN*%
G70*
G04*
G04 #@! TF.SameCoordinates,DE848DBD-6215-49A0-A964-8366D708164F*
G04*
G04*
G04 #@! TF.FilePolarity,Positive*
G04*
G01*
G75*
%ADD10C,0.00600*%
%ADD11C,0.02000*%
%ADD59C,0.06000*%
%ADD60C,0.07000*%
%ADD61O,0.09449X0.04724*%
%ADD62C,0.04724*%
%ADD63C,0.06378*%
%ADD64O,0.12992X0.07087*%
%ADD65O,0.07874X0.14961*%
%ADD66C,0.06496*%
%ADD67C,0.02200*%
G36*
X328000Y257000D02*
Y197000D01*
X340000Y185000D01*
Y55000D01*
X328000Y43000D01*
Y7000D01*
X323000Y2000D01*
X9000D01*
X2000Y9000D01*
Y258500D01*
X7500Y264000D01*
X321000D01*
X328000Y257000D01*
D02*
G37*
%LPC*%
G36*
X184527Y261500D02*
X184500D01*
Y258000D01*
X188000D01*
Y258027D01*
X187727Y259044D01*
X187201Y259956D01*
X186456Y260701D01*
X185544Y261227D01*
X184527Y261500D01*
D02*
G37*
G36*
X134527D02*
X134500D01*
Y258000D01*
X138000D01*
Y258027D01*
X137727Y259044D01*
X137201Y259956D01*
X136456Y260701D01*
X135544Y261227D01*
X134527Y261500D01*
D02*
G37*
G36*
X214527D02*
X214500D01*
Y258000D01*
X218000D01*
Y258027D01*
X217727Y259044D01*
X217201Y259956D01*
X216456Y260701D01*
X215544Y261227D01*
X214527Y261500D01*
D02*
G37*
G36*
X204527D02*
X204500D01*
Y258000D01*
X208000D01*
Y258027D01*
X207727Y259044D01*
X207201Y259956D01*
X206456Y260701D01*
X205544Y261227D01*
X204527Y261500D01*
D02*
G37*
G36*
X194527D02*
X194500D01*
Y258000D01*
X198000D01*
Y258027D01*
X197727Y259044D01*
X197201Y259956D01*
X196456Y260701D01*
X195544Y261227D01*
X194527Y261500D01*
D02*
G37*
G36*
X164527D02*
X164500D01*
Y258000D01*
X168000D01*
Y258027D01*
X167727Y259044D01*
X167201Y259956D01*
X166456Y260701D01*
X165544Y261227D01*
X164527Y261500D01*
D02*
G37*
G36*
X154527D02*
X154500D01*
Y258000D01*
X158000D01*
Y258027D01*
X157727Y259044D01*
X157201Y259956D01*
X156456Y260701D01*
X155544Y261227D01*
X154527Y261500D01*
D02*
G37*
G36*
X224527D02*
X224500D01*
Y258000D01*
X228000D01*
Y258027D01*
X227727Y259044D01*
X227201Y259956D01*
X226456Y260701D01*
X225544Y261227D01*
X224527Y261500D01*
D02*
G37*
G36*
X174527D02*
X174500D01*
Y258000D01*
X178000D01*
Y258027D01*
X177727Y259044D01*
X177201Y259956D01*
X176456Y260701D01*
X175544Y261227D01*
X174527Y261500D01*
D02*
G37*
G36*
X144527D02*
X144500D01*
Y258000D01*
X148000D01*
Y258027D01*
X147727Y259044D01*
X147201Y259956D01*
X146456Y260701D01*
X145544Y261227D01*
X144527Y261500D01*
D02*
G37*
G36*
X310527D02*
X310500D01*
Y258000D01*
X314000D01*
Y258027D01*
X313727Y259044D01*
X313201Y259956D01*
X312456Y260701D01*
X311544Y261227D01*
X310527Y261500D01*
D02*
G37*
G36*
X309500D02*
X309473D01*
X308456Y261227D01*
X307544Y260701D01*
X306799Y259956D01*
X306273Y259044D01*
X306000Y258027D01*
Y258000D01*
X309500D01*
Y261500D01*
D02*
G37*
G36*
X300527D02*
X300500D01*
Y258000D01*
X304000D01*
Y258027D01*
X303727Y259044D01*
X303201Y259956D01*
X302456Y260701D01*
X301544Y261227D01*
X300527Y261500D01*
D02*
G37*
G36*
X299500D02*
X299473D01*
X298456Y261227D01*
X297544Y260701D01*
X296799Y259956D01*
X296273Y259044D01*
X296000Y258027D01*
Y258000D01*
X299500D01*
Y261500D01*
D02*
G37*
G36*
X290527D02*
X290500D01*
Y258000D01*
X294000D01*
Y258027D01*
X293727Y259044D01*
X293201Y259956D01*
X292456Y260701D01*
X291544Y261227D01*
X290527Y261500D01*
D02*
G37*
G36*
X289500D02*
X289473D01*
X288456Y261227D01*
X287544Y260701D01*
X286799Y259956D01*
X286273Y259044D01*
X286000Y258027D01*
Y258000D01*
X289500D01*
Y261500D01*
D02*
G37*
G36*
X280527D02*
X280500D01*
Y258000D01*
X284000D01*
Y258027D01*
X283727Y259044D01*
X283201Y259956D01*
X282456Y260701D01*
X281544Y261227D01*
X280527Y261500D01*
D02*
G37*
G36*
X279500D02*
X279473D01*
X278456Y261227D01*
X277544Y260701D01*
X276799Y259956D01*
X276273Y259044D01*
X276000Y258027D01*
Y258000D01*
X279500D01*
Y261500D01*
D02*
G37*
G36*
X270527D02*
X270500D01*
Y258000D01*
X274000D01*
Y258027D01*
X273727Y259044D01*
X273201Y259956D01*
X272456Y260701D01*
X271544Y261227D01*
X270527Y261500D01*
D02*
G37*
G36*
X269500D02*
X269473D01*
X268456Y261227D01*
X267544Y260701D01*
X266799Y259956D01*
X266273Y259044D01*
X266000Y258027D01*
Y258000D01*
X269500D01*
Y261500D01*
D02*
G37*
G36*
X260527D02*
X260500D01*
Y258000D01*
X264000D01*
Y258027D01*
X263727Y259044D01*
X263201Y259956D01*
X262456Y260701D01*
X261544Y261227D01*
X260527Y261500D01*
D02*
G37*
G36*
X259500D02*
X259473D01*
X258456Y261227D01*
X257544Y260701D01*
X256799Y259956D01*
X256273Y259044D01*
X256000Y258027D01*
Y258000D01*
X259500D01*
Y261500D01*
D02*
G37*
G36*
X250527D02*
X250500D01*
Y258000D01*
X254000D01*
Y258027D01*
X253727Y259044D01*
X253201Y259956D01*
X252456Y260701D01*
X251544Y261227D01*
X250527Y261500D01*
D02*
G37*
G36*
X249500D02*
X249473D01*
X248456Y261227D01*
X247544Y260701D01*
X246799Y259956D01*
X246273Y259044D01*
X246000Y258027D01*
Y258000D01*
X249500D01*
Y261500D01*
D02*
G37*
G36*
X240527D02*
X240500D01*
Y258000D01*
X244000D01*
Y258027D01*
X243727Y259044D01*
X243201Y259956D01*
X242456Y260701D01*
X241544Y261227D01*
X240527Y261500D01*
D02*
G37*
G36*
X239500D02*
X239473D01*
X238456Y261227D01*
X237544Y260701D01*
X236799Y259956D01*
X236273Y259044D01*
X236000Y258027D01*
Y258000D01*
X239500D01*
Y261500D01*
D02*
G37*
G36*
X183500D02*
X183473D01*
X182456Y261227D01*
X181544Y260701D01*
X180799Y259956D01*
X180273Y259044D01*
X180000Y258027D01*
Y258000D01*
X183500D01*
Y261500D01*
D02*
G37*
G36*
X133500D02*
X133473D01*
X132456Y261227D01*
X131544Y260701D01*
X130799Y259956D01*
X130273Y259044D01*
X130000Y258027D01*
Y258000D01*
X133500D01*
Y261500D01*
D02*
G37*
G36*
X203500D02*
X203473D01*
X202456Y261227D01*
X201544Y260701D01*
X200799Y259956D01*
X200273Y259044D01*
X200000Y258027D01*
Y258000D01*
X203500D01*
Y261500D01*
D02*
G37*
G36*
X193500D02*
X193473D01*
X192456Y261227D01*
X191544Y260701D01*
X190799Y259956D01*
X190273Y259044D01*
X190000Y258027D01*
Y258000D01*
X193500D01*
Y261500D01*
D02*
G37*
G36*
X163500D02*
X163473D01*
X162456Y261227D01*
X161544Y260701D01*
X160799Y259956D01*
X160273Y259044D01*
X160000Y258027D01*
Y258000D01*
X163500D01*
Y261500D01*
D02*
G37*
G36*
X153500D02*
X153473D01*
X152456Y261227D01*
X151544Y260701D01*
X150799Y259956D01*
X150273Y259044D01*
X150000Y258027D01*
Y258000D01*
X153500D01*
Y261500D01*
D02*
G37*
G36*
X213500D02*
X213473D01*
X212456Y261227D01*
X211544Y260701D01*
X210799Y259956D01*
X210273Y259044D01*
X210000Y258027D01*
Y258000D01*
X213500D01*
Y261500D01*
D02*
G37*
G36*
X223500D02*
X223473D01*
X222456Y261227D01*
X221544Y260701D01*
X220799Y259956D01*
X220273Y259044D01*
X220000Y258027D01*
Y258000D01*
X223500D01*
Y261500D01*
D02*
G37*
G36*
X173500D02*
X173473D01*
X172456Y261227D01*
X171544Y260701D01*
X170799Y259956D01*
X170273Y259044D01*
X170000Y258027D01*
Y258000D01*
X173500D01*
Y261500D01*
D02*
G37*
G36*
X143500D02*
X143473D01*
X142456Y261227D01*
X141544Y260701D01*
X140799Y259956D01*
X140273Y259044D01*
X140000Y258027D01*
Y258000D01*
X143500D01*
Y261500D01*
D02*
G37*
G36*
X314000Y257000D02*
X310500D01*
Y253500D01*
X310527D01*
X311544Y253773D01*
X312456Y254299D01*
X313201Y255044D01*
X313727Y255956D01*
X314000Y256973D01*
Y257000D01*
D02*
G37*
G36*
X309500D02*
X306000D01*
Y256973D01*
X306273Y255956D01*
X306799Y255044D01*
X307544Y254299D01*
X308456Y253773D01*
X309473Y253500D01*
X309500D01*
Y257000D01*
D02*
G37*
G36*
X304000D02*
X300500D01*
Y253500D01*
X300527D01*
X301544Y253773D01*
X302456Y254299D01*
X303201Y255044D01*
X303727Y255956D01*
X304000Y256973D01*
Y257000D01*
D02*
G37*
G36*
X299500D02*
X296000D01*
Y256973D01*
X296273Y255956D01*
X296799Y255044D01*
X297544Y254299D01*
X298456Y253773D01*
X299473Y253500D01*
X299500D01*
Y257000D01*
D02*
G37*
G36*
X294000D02*
X290500D01*
Y253500D01*
X290527D01*
X291544Y253773D01*
X292456Y254299D01*
X293201Y255044D01*
X293727Y255956D01*
X294000Y256973D01*
Y257000D01*
D02*
G37*
G36*
X289500D02*
X286000D01*
Y256973D01*
X286273Y255956D01*
X286799Y255044D01*
X287544Y254299D01*
X288456Y253773D01*
X289473Y253500D01*
X289500D01*
Y257000D01*
D02*
G37*
G36*
X284000D02*
X280500D01*
Y253500D01*
X280527D01*
X281544Y253773D01*
X282456Y254299D01*
X283201Y255044D01*
X283727Y255956D01*
X284000Y256973D01*
Y257000D01*
D02*
G37*
G36*
X279500D02*
X276000D01*
Y256973D01*
X276273Y255956D01*
X276799Y255044D01*
X277544Y254299D01*
X278456Y253773D01*
X279473Y253500D01*
X279500D01*
Y257000D01*
D02*
G37*
G36*
X274000D02*
X270500D01*
Y253500D01*
X270527D01*
X271544Y253773D01*
X272456Y254299D01*
X273201Y255044D01*
X273727Y255956D01*
X274000Y256973D01*
Y257000D01*
D02*
G37*
G36*
X269500D02*
X266000D01*
Y256973D01*
X266273Y255956D01*
X266799Y255044D01*
X267544Y254299D01*
X268456Y253773D01*
X269473Y253500D01*
X269500D01*
Y257000D01*
D02*
G37*
G36*
X264000D02*
X260500D01*
Y253500D01*
X260527D01*
X261544Y253773D01*
X262456Y254299D01*
X263201Y255044D01*
X263727Y255956D01*
X264000Y256973D01*
Y257000D01*
D02*
G37*
G36*
X259500D02*
X256000D01*
Y256973D01*
X256273Y255956D01*
X256799Y255044D01*
X257544Y254299D01*
X258456Y253773D01*
X259473Y253500D01*
X259500D01*
Y257000D01*
D02*
G37*
G36*
X254000D02*
X250500D01*
Y253500D01*
X250527D01*
X251544Y253773D01*
X252456Y254299D01*
X253201Y255044D01*
X253727Y255956D01*
X254000Y256973D01*
Y257000D01*
D02*
G37*
G36*
X249500D02*
X246000D01*
Y256973D01*
X246273Y255956D01*
X246799Y255044D01*
X247544Y254299D01*
X248456Y253773D01*
X249473Y253500D01*
X249500D01*
Y257000D01*
D02*
G37*
G36*
X244000D02*
X240500D01*
Y253500D01*
X240527D01*
X241544Y253773D01*
X242456Y254299D01*
X243201Y255044D01*
X243727Y255956D01*
X244000Y256973D01*
Y257000D01*
D02*
G37*
G36*
X239500D02*
X236000D01*
Y256973D01*
X236273Y255956D01*
X236799Y255044D01*
X237544Y254299D01*
X238456Y253773D01*
X239473Y253500D01*
X239500D01*
Y257000D01*
D02*
G37*
G36*
X228000D02*
X224500D01*
Y253500D01*
X224527D01*
X225544Y253773D01*
X226456Y254299D01*
X227201Y255044D01*
X227727Y255956D01*
X228000Y256973D01*
Y257000D01*
D02*
G37*
G36*
X223500D02*
X220000D01*
Y256973D01*
X220273Y255956D01*
X220799Y255044D01*
X221544Y254299D01*
X222456Y253773D01*
X223473Y253500D01*
X223500D01*
Y257000D01*
D02*
G37*
G36*
X218000D02*
X214500D01*
Y253500D01*
X214527D01*
X215544Y253773D01*
X216456Y254299D01*
X217201Y255044D01*
X217727Y255956D01*
X218000Y256973D01*
Y257000D01*
D02*
G37*
G36*
X213500D02*
X210000D01*
Y256973D01*
X210273Y255956D01*
X210799Y255044D01*
X211544Y254299D01*
X212456Y253773D01*
X213473Y253500D01*
X213500D01*
Y257000D01*
D02*
G37*
G36*
X208000D02*
X204500D01*
Y253500D01*
X204527D01*
X205544Y253773D01*
X206456Y254299D01*
X207201Y255044D01*
X207727Y255956D01*
X208000Y256973D01*
Y257000D01*
D02*
G37*
G36*
X203500D02*
X200000D01*
Y256973D01*
X200273Y255956D01*
X200799Y255044D01*
X201544Y254299D01*
X202456Y253773D01*
X203473Y253500D01*
X203500D01*
Y257000D01*
D02*
G37*
G36*
X198000D02*
X194500D01*
Y253500D01*
X194527D01*
X195544Y253773D01*
X196456Y254299D01*
X197201Y255044D01*
X197727Y255956D01*
X198000Y256973D01*
Y257000D01*
D02*
G37*
G36*
X193500D02*
X190000D01*
Y256973D01*
X190273Y255956D01*
X190799Y255044D01*
X191544Y254299D01*
X192456Y253773D01*
X193473Y253500D01*
X193500D01*
Y257000D01*
D02*
G37*
G36*
X188000D02*
X184500D01*
Y253500D01*
X184527D01*
X185544Y253773D01*
X186456Y254299D01*
X187201Y255044D01*
X187727Y255956D01*
X188000Y256973D01*
Y257000D01*
D02*
G37*
G36*
X183500D02*
X180000D01*
Y256973D01*
X180273Y255956D01*
X180799Y255044D01*
X181544Y254299D01*
X182456Y253773D01*
X183473Y253500D01*
X183500D01*
Y257000D01*
D02*
G37*
G36*
X178000D02*
X174500D01*
Y253500D01*
X174527D01*
X175544Y253773D01*
X176456Y254299D01*
X177201Y255044D01*
X177727Y255956D01*
X178000Y256973D01*
Y257000D01*
D02*
G37*
G36*
X173500D02*
X170000D01*
Y256973D01*
X170273Y255956D01*
X170799Y255044D01*
X171544Y254299D01*
X172456Y253773D01*
X173473Y253500D01*
X173500D01*
Y257000D01*
D02*
G37*
G36*
X168000D02*
X164500D01*
Y253500D01*
X164527D01*
X165544Y253773D01*
X166456Y254299D01*
X167201Y255044D01*
X167727Y255956D01*
X168000Y256973D01*
Y257000D01*
D02*
G37*
G36*
X163500D02*
X160000D01*
Y256973D01*
X160273Y255956D01*
X160799Y255044D01*
X161544Y254299D01*
X162456Y253773D01*
X163473Y253500D01*
X163500D01*
Y257000D01*
D02*
G37*
G36*
X158000D02*
X154500D01*
Y253500D01*
X154527D01*
X155544Y253773D01*
X156456Y254299D01*
X157201Y255044D01*
X157727Y255956D01*
X158000Y256973D01*
Y257000D01*
D02*
G37*
G36*
X153500D02*
X150000D01*
Y256973D01*
X150273Y255956D01*
X150799Y255044D01*
X151544Y254299D01*
X152456Y253773D01*
X153473Y253500D01*
X153500D01*
Y257000D01*
D02*
G37*
G36*
X148000D02*
X144500D01*
Y253500D01*
X144527D01*
X145544Y253773D01*
X146456Y254299D01*
X147201Y255044D01*
X147727Y255956D01*
X148000Y256973D01*
Y257000D01*
D02*
G37*
G36*
X143500D02*
X140000D01*
Y256973D01*
X140273Y255956D01*
X140799Y255044D01*
X141544Y254299D01*
X142456Y253773D01*
X143473Y253500D01*
X143500D01*
Y257000D01*
D02*
G37*
G36*
X138000D02*
X134500D01*
Y253500D01*
X134527D01*
X135544Y253773D01*
X136456Y254299D01*
X137201Y255044D01*
X137727Y255956D01*
X138000Y256973D01*
Y257000D01*
D02*
G37*
G36*
X133500D02*
X130000D01*
Y256973D01*
X130273Y255956D01*
X130799Y255044D01*
X131544Y254299D01*
X132456Y253773D01*
X133473Y253500D01*
X133500D01*
Y257000D01*
D02*
G37*
G36*
X33500Y246957D02*
Y239000D01*
X37980D01*
Y242043D01*
X37810Y243332D01*
X37312Y244533D01*
X36521Y245564D01*
X35490Y246356D01*
X34289Y246853D01*
X33500Y246957D01*
D02*
G37*
G36*
X32500D02*
X31711Y246853D01*
X30510Y246356D01*
X29479Y245564D01*
X28688Y244533D01*
X28190Y243332D01*
X28020Y242043D01*
Y239000D01*
X32500D01*
Y246957D01*
D02*
G37*
G36*
X56622Y246620D02*
X55438Y246463D01*
X54334Y246006D01*
X53386Y245279D01*
X52659Y244331D01*
X52202Y243228D01*
X52046Y242043D01*
Y234957D01*
X52202Y233772D01*
X52659Y232669D01*
X53386Y231721D01*
X54334Y230994D01*
X55438Y230537D01*
X56622Y230381D01*
X57806Y230537D01*
X58910Y230994D01*
X59858Y231721D01*
X60585Y232669D01*
X61042Y233772D01*
X61198Y234957D01*
Y242043D01*
X61042Y243228D01*
X60585Y244331D01*
X59858Y245279D01*
X58910Y246006D01*
X57806Y246463D01*
X56622Y246620D01*
D02*
G37*
G36*
X37980Y238000D02*
X33500D01*
Y230043D01*
X34289Y230147D01*
X35490Y230644D01*
X36521Y231436D01*
X37312Y232467D01*
X37810Y233668D01*
X37980Y234957D01*
Y238000D01*
D02*
G37*
G36*
X32500D02*
X28020D01*
Y234957D01*
X28190Y233668D01*
X28688Y232467D01*
X29479Y231436D01*
X30510Y230644D01*
X31711Y230147D01*
X32500Y230043D01*
Y238000D01*
D02*
G37*
G36*
X164527Y231500D02*
X164500D01*
Y228000D01*
X168000D01*
Y228027D01*
X167727Y229044D01*
X167201Y229956D01*
X166456Y230701D01*
X165544Y231227D01*
X164527Y231500D01*
D02*
G37*
G36*
X163500D02*
X163473D01*
X162456Y231227D01*
X161544Y230701D01*
X160799Y229956D01*
X160273Y229044D01*
X160000Y228027D01*
Y228000D01*
X163500D01*
Y231500D01*
D02*
G37*
G36*
X310474Y231100D02*
X309526D01*
X308610Y230855D01*
X307790Y230381D01*
X307119Y229710D01*
X306645Y228890D01*
X306400Y227974D01*
Y227026D01*
X306645Y226110D01*
X307119Y225290D01*
X307790Y224619D01*
X308610Y224145D01*
X309526Y223900D01*
X310474D01*
X311390Y224145D01*
X312210Y224619D01*
X312881Y225290D01*
X313355Y226110D01*
X313600Y227026D01*
Y227974D01*
X313355Y228890D01*
X312881Y229710D01*
X312210Y230381D01*
X311390Y230855D01*
X310474Y231100D01*
D02*
G37*
G36*
X300474D02*
X299526D01*
X298610Y230855D01*
X297790Y230381D01*
X297119Y229710D01*
X296645Y228890D01*
X296400Y227974D01*
Y227026D01*
X296645Y226110D01*
X297119Y225290D01*
X297790Y224619D01*
X298610Y224145D01*
X299526Y223900D01*
X300474D01*
X301390Y224145D01*
X302210Y224619D01*
X302881Y225290D01*
X303355Y226110D01*
X303600Y227026D01*
Y227974D01*
X303355Y228890D01*
X302881Y229710D01*
X302210Y230381D01*
X301390Y230855D01*
X300474Y231100D01*
D02*
G37*
G36*
X290474D02*
X289526D01*
X288610Y230855D01*
X287790Y230381D01*
X287119Y229710D01*
X286645Y228890D01*
X286400Y227974D01*
Y227026D01*
X286645Y226110D01*
X287119Y225290D01*
X287790Y224619D01*
X288610Y224145D01*
X289526Y223900D01*
X290474D01*
X291390Y224145D01*
X292210Y224619D01*
X292881Y225290D01*
X293355Y226110D01*
X293600Y227026D01*
Y227974D01*
X293355Y228890D01*
X292881Y229710D01*
X292210Y230381D01*
X291390Y230855D01*
X290474Y231100D01*
D02*
G37*
G36*
X280474D02*
X279526D01*
X278610Y230855D01*
X277790Y230381D01*
X277119Y229710D01*
X276645Y228890D01*
X276400Y227974D01*
Y227026D01*
X276645Y226110D01*
X277119Y225290D01*
X277790Y224619D01*
X278610Y224145D01*
X279526Y223900D01*
X280474D01*
X281390Y224145D01*
X282210Y224619D01*
X282881Y225290D01*
X283355Y226110D01*
X283600Y227026D01*
Y227974D01*
X283355Y228890D01*
X282881Y229710D01*
X282210Y230381D01*
X281390Y230855D01*
X280474Y231100D01*
D02*
G37*
G36*
X270474D02*
X269526D01*
X268610Y230855D01*
X267790Y230381D01*
X267119Y229710D01*
X266645Y228890D01*
X266400Y227974D01*
Y227026D01*
X266645Y226110D01*
X267119Y225290D01*
X267790Y224619D01*
X268610Y224145D01*
X269526Y223900D01*
X270474D01*
X271390Y224145D01*
X272210Y224619D01*
X272881Y225290D01*
X273355Y226110D01*
X273600Y227026D01*
Y227974D01*
X273355Y228890D01*
X272881Y229710D01*
X272210Y230381D01*
X271390Y230855D01*
X270474Y231100D01*
D02*
G37*
G36*
X260474D02*
X259526D01*
X258610Y230855D01*
X257790Y230381D01*
X257119Y229710D01*
X256645Y228890D01*
X256400Y227974D01*
Y227026D01*
X256645Y226110D01*
X257119Y225290D01*
X257790Y224619D01*
X258610Y224145D01*
X259526Y223900D01*
X260474D01*
X261390Y224145D01*
X262210Y224619D01*
X262881Y225290D01*
X263355Y226110D01*
X263600Y227026D01*
Y227974D01*
X263355Y228890D01*
X262881Y229710D01*
X262210Y230381D01*
X261390Y230855D01*
X260474Y231100D01*
D02*
G37*
G36*
X250474D02*
X249526D01*
X248610Y230855D01*
X247790Y230381D01*
X247119Y229710D01*
X246645Y228890D01*
X246400Y227974D01*
Y227026D01*
X246645Y226110D01*
X247119Y225290D01*
X247790Y224619D01*
X248610Y224145D01*
X249526Y223900D01*
X250474D01*
X251390Y224145D01*
X252210Y224619D01*
X252881Y225290D01*
X253355Y226110D01*
X253600Y227026D01*
Y227974D01*
X253355Y228890D01*
X252881Y229710D01*
X252210Y230381D01*
X251390Y230855D01*
X250474Y231100D01*
D02*
G37*
G36*
X240474D02*
X239526D01*
X238610Y230855D01*
X237790Y230381D01*
X237119Y229710D01*
X236645Y228890D01*
X236400Y227974D01*
Y227026D01*
X236645Y226110D01*
X237119Y225290D01*
X237790Y224619D01*
X238610Y224145D01*
X239526Y223900D01*
X240474D01*
X241390Y224145D01*
X242210Y224619D01*
X242881Y225290D01*
X243355Y226110D01*
X243600Y227026D01*
Y227974D01*
X243355Y228890D01*
X242881Y229710D01*
X242210Y230381D01*
X241390Y230855D01*
X240474Y231100D01*
D02*
G37*
G36*
X224474D02*
X223526D01*
X222610Y230855D01*
X221790Y230381D01*
X221119Y229710D01*
X220645Y228890D01*
X220400Y227974D01*
Y227026D01*
X220645Y226110D01*
X221119Y225290D01*
X221790Y224619D01*
X222610Y224145D01*
X223526Y223900D01*
X224474D01*
X225390Y224145D01*
X226210Y224619D01*
X226881Y225290D01*
X227355Y226110D01*
X227600Y227026D01*
Y227974D01*
X227355Y228890D01*
X226881Y229710D01*
X226210Y230381D01*
X225390Y230855D01*
X224474Y231100D01*
D02*
G37*
G36*
X214474D02*
X213526D01*
X212610Y230855D01*
X211790Y230381D01*
X211119Y229710D01*
X210645Y228890D01*
X210400Y227974D01*
Y227026D01*
X210645Y226110D01*
X211119Y225290D01*
X211790Y224619D01*
X212610Y224145D01*
X213526Y223900D01*
X214474D01*
X215390Y224145D01*
X216210Y224619D01*
X216881Y225290D01*
X217355Y226110D01*
X217600Y227026D01*
Y227974D01*
X217355Y228890D01*
X216881Y229710D01*
X216210Y230381D01*
X215390Y230855D01*
X214474Y231100D01*
D02*
G37*
G36*
X204474D02*
X203526D01*
X202610Y230855D01*
X201790Y230381D01*
X201119Y229710D01*
X200645Y228890D01*
X200400Y227974D01*
Y227026D01*
X200645Y226110D01*
X201119Y225290D01*
X201790Y224619D01*
X202610Y224145D01*
X203526Y223900D01*
X204474D01*
X205390Y224145D01*
X206210Y224619D01*
X206881Y225290D01*
X207355Y226110D01*
X207600Y227026D01*
Y227974D01*
X207355Y228890D01*
X206881Y229710D01*
X206210Y230381D01*
X205390Y230855D01*
X204474Y231100D01*
D02*
G37*
G36*
X194474D02*
X193526D01*
X192610Y230855D01*
X191790Y230381D01*
X191119Y229710D01*
X190645Y228890D01*
X190400Y227974D01*
Y227026D01*
X190645Y226110D01*
X191119Y225290D01*
X191790Y224619D01*
X192610Y224145D01*
X193526Y223900D01*
X194474D01*
X195390Y224145D01*
X196210Y224619D01*
X196881Y225290D01*
X197355Y226110D01*
X197600Y227026D01*
Y227974D01*
X197355Y228890D01*
X196881Y229710D01*
X196210Y230381D01*
X195390Y230855D01*
X194474Y231100D01*
D02*
G37*
G36*
X184474D02*
X183526D01*
X182610Y230855D01*
X181790Y230381D01*
X181119Y229710D01*
X180645Y228890D01*
X180400Y227974D01*
Y227026D01*
X180645Y226110D01*
X181119Y225290D01*
X181790Y224619D01*
X182610Y224145D01*
X183526Y223900D01*
X184474D01*
X185390Y224145D01*
X186210Y224619D01*
X186881Y225290D01*
X187355Y226110D01*
X187600Y227026D01*
Y227974D01*
X187355Y228890D01*
X186881Y229710D01*
X186210Y230381D01*
X185390Y230855D01*
X184474Y231100D01*
D02*
G37*
G36*
X174474D02*
X173526D01*
X172610Y230855D01*
X171790Y230381D01*
X171119Y229710D01*
X170645Y228890D01*
X170400Y227974D01*
Y227026D01*
X170645Y226110D01*
X171119Y225290D01*
X171790Y224619D01*
X172610Y224145D01*
X173526Y223900D01*
X174474D01*
X175390Y224145D01*
X176210Y224619D01*
X176881Y225290D01*
X177355Y226110D01*
X177600Y227026D01*
Y227974D01*
X177355Y228890D01*
X176881Y229710D01*
X176210Y230381D01*
X175390Y230855D01*
X174474Y231100D01*
D02*
G37*
G36*
X154474D02*
X153526D01*
X152610Y230855D01*
X151790Y230381D01*
X151119Y229710D01*
X150645Y228890D01*
X150400Y227974D01*
Y227026D01*
X150645Y226110D01*
X151119Y225290D01*
X151790Y224619D01*
X152610Y224145D01*
X153526Y223900D01*
X154474D01*
X155390Y224145D01*
X156210Y224619D01*
X156881Y225290D01*
X157355Y226110D01*
X157600Y227026D01*
Y227974D01*
X157355Y228890D01*
X156881Y229710D01*
X156210Y230381D01*
X155390Y230855D01*
X154474Y231100D01*
D02*
G37*
G36*
X144474D02*
X143526D01*
X142610Y230855D01*
X141790Y230381D01*
X141119Y229710D01*
X140645Y228890D01*
X140400Y227974D01*
Y227026D01*
X140645Y226110D01*
X141119Y225290D01*
X141790Y224619D01*
X142610Y224145D01*
X143526Y223900D01*
X144474D01*
X145390Y224145D01*
X146210Y224619D01*
X146881Y225290D01*
X147355Y226110D01*
X147600Y227026D01*
Y227974D01*
X147355Y228890D01*
X146881Y229710D01*
X146210Y230381D01*
X145390Y230855D01*
X144474Y231100D01*
D02*
G37*
G36*
X134474D02*
X133526D01*
X132610Y230855D01*
X131790Y230381D01*
X131119Y229710D01*
X130645Y228890D01*
X130400Y227974D01*
Y227026D01*
X130645Y226110D01*
X131119Y225290D01*
X131790Y224619D01*
X132610Y224145D01*
X133526Y223900D01*
X134474D01*
X135390Y224145D01*
X136210Y224619D01*
X136881Y225290D01*
X137355Y226110D01*
X137600Y227026D01*
Y227974D01*
X137355Y228890D01*
X136881Y229710D01*
X136210Y230381D01*
X135390Y230855D01*
X134474Y231100D01*
D02*
G37*
G36*
X168000Y227000D02*
X164500D01*
Y223500D01*
X164527D01*
X165544Y223773D01*
X166456Y224299D01*
X167201Y225044D01*
X167727Y225956D01*
X168000Y226973D01*
Y227000D01*
D02*
G37*
G36*
X163500D02*
X160000D01*
Y226973D01*
X160273Y225956D01*
X160799Y225044D01*
X161544Y224299D01*
X162456Y223773D01*
X163473Y223500D01*
X163500D01*
Y227000D01*
D02*
G37*
G36*
X49732Y224775D02*
X47280D01*
Y220693D01*
X54249D01*
X54159Y221379D01*
X53701Y222484D01*
X52973Y223433D01*
X52024Y224162D01*
X50918Y224619D01*
X49732Y224775D01*
D02*
G37*
G36*
X46279D02*
X43827D01*
X42641Y224619D01*
X41535Y224162D01*
X40587Y223433D01*
X39858Y222484D01*
X39400Y221379D01*
X39310Y220693D01*
X46279D01*
Y224775D01*
D02*
G37*
G36*
X54249Y219693D02*
X47280D01*
Y215610D01*
X49732D01*
X50918Y215767D01*
X52024Y216224D01*
X52973Y216953D01*
X53701Y217902D01*
X54159Y219007D01*
X54249Y219693D01*
D02*
G37*
G36*
X46279D02*
X39310D01*
X39400Y219007D01*
X39858Y217902D01*
X40587Y216953D01*
X41535Y216224D01*
X42641Y215767D01*
X43827Y215610D01*
X46279D01*
Y219693D01*
D02*
G37*
G36*
X285592Y202000D02*
X285500D01*
Y198000D01*
X289500D01*
Y198092D01*
X289193Y199237D01*
X288601Y200263D01*
X287763Y201101D01*
X286737Y201693D01*
X285592Y202000D01*
D02*
G37*
G36*
X284500D02*
X284408D01*
X283263Y201693D01*
X282237Y201101D01*
X281399Y200263D01*
X280807Y199237D01*
X280500Y198092D01*
Y198000D01*
X284500D01*
Y202000D01*
D02*
G37*
G36*
X178040Y205600D02*
X176960D01*
X175917Y205321D01*
X174983Y204781D01*
X174219Y204017D01*
X173679Y203082D01*
X173400Y202040D01*
Y200960D01*
X173679Y199917D01*
X174219Y198983D01*
X174983Y198219D01*
X175917Y197679D01*
X176960Y197400D01*
X178040D01*
X179083Y197679D01*
X180017Y198219D01*
X180781Y198983D01*
X181321Y199917D01*
X181600Y200960D01*
Y202040D01*
X181321Y203082D01*
X180781Y204017D01*
X180017Y204781D01*
X179083Y205321D01*
X178040Y205600D01*
D02*
G37*
G36*
X168040D02*
X166960D01*
X165918Y205321D01*
X164982Y204781D01*
X164219Y204017D01*
X163679Y203082D01*
X163400Y202040D01*
Y200960D01*
X163679Y199917D01*
X164219Y198983D01*
X164982Y198219D01*
X165918Y197679D01*
X166960Y197400D01*
X168040D01*
X169082Y197679D01*
X170018Y198219D01*
X170781Y198983D01*
X171321Y199917D01*
X171600Y200960D01*
Y202040D01*
X171321Y203082D01*
X170781Y204017D01*
X170018Y204781D01*
X169082Y205321D01*
X168040Y205600D01*
D02*
G37*
G36*
X289500Y197000D02*
X285500D01*
Y193000D01*
X285592D01*
X286737Y193307D01*
X287763Y193899D01*
X288601Y194737D01*
X289193Y195763D01*
X289500Y196908D01*
Y197000D01*
D02*
G37*
G36*
X284500D02*
X280500D01*
Y196908D01*
X280807Y195763D01*
X281399Y194737D01*
X282237Y193899D01*
X283263Y193307D01*
X284408Y193000D01*
X284500D01*
Y197000D01*
D02*
G37*
G36*
X285592Y192000D02*
X285500D01*
Y188000D01*
X289500D01*
Y188092D01*
X289193Y189237D01*
X288601Y190263D01*
X287763Y191101D01*
X286737Y191693D01*
X285592Y192000D01*
D02*
G37*
G36*
X284500D02*
X284408D01*
X283263Y191693D01*
X282237Y191101D01*
X281399Y190263D01*
X280807Y189237D01*
X280500Y188092D01*
Y188000D01*
X284500D01*
Y192000D01*
D02*
G37*
G36*
X178040Y195600D02*
X176960D01*
X175917Y195321D01*
X174983Y194781D01*
X174219Y194018D01*
X173679Y193082D01*
X173400Y192040D01*
Y190960D01*
X173679Y189918D01*
X174219Y188982D01*
X174983Y188219D01*
X175917Y187679D01*
X176960Y187400D01*
X178040D01*
X179083Y187679D01*
X180017Y188219D01*
X180781Y188982D01*
X181321Y189918D01*
X181600Y190960D01*
Y192040D01*
X181321Y193082D01*
X180781Y194018D01*
X180017Y194781D01*
X179083Y195321D01*
X178040Y195600D01*
D02*
G37*
G36*
X168040D02*
X166960D01*
X165918Y195321D01*
X164982Y194781D01*
X164219Y194018D01*
X163679Y193082D01*
X163400Y192040D01*
Y190960D01*
X163679Y189918D01*
X164219Y188982D01*
X164982Y188219D01*
X165918Y187679D01*
X166960Y187400D01*
X168040D01*
X169082Y187679D01*
X170018Y188219D01*
X170781Y188982D01*
X171321Y189918D01*
X171600Y190960D01*
Y192040D01*
X171321Y193082D01*
X170781Y194018D01*
X170018Y194781D01*
X169082Y195321D01*
X168040Y195600D01*
D02*
G37*
G36*
X115007Y193348D02*
X113993D01*
X113015Y193086D01*
X112137Y192579D01*
X111421Y191863D01*
X110914Y190985D01*
X110652Y190007D01*
Y188993D01*
X110914Y188015D01*
X111421Y187137D01*
X112137Y186421D01*
X113015Y185914D01*
X113993Y185652D01*
X115007D01*
X115985Y185914D01*
X116863Y186421D01*
X117579Y187137D01*
X118086Y188015D01*
X118348Y188993D01*
Y190007D01*
X118086Y190985D01*
X117579Y191863D01*
X116863Y192579D01*
X115985Y193086D01*
X115007Y193348D01*
D02*
G37*
G36*
X56474Y192100D02*
X55526D01*
X54611Y191855D01*
X53790Y191381D01*
X53119Y190710D01*
X52645Y189890D01*
X52400Y188974D01*
Y188026D01*
X52645Y187110D01*
X53119Y186290D01*
X53790Y185619D01*
X54611Y185145D01*
X55526Y184900D01*
X56474D01*
X57389Y185145D01*
X58210Y185619D01*
X58881Y186290D01*
X59355Y187110D01*
X59600Y188026D01*
Y188974D01*
X59355Y189890D01*
X58881Y190710D01*
X58210Y191381D01*
X57389Y191855D01*
X56474Y192100D01*
D02*
G37*
G36*
X46474D02*
X45526D01*
X44610Y191855D01*
X43790Y191381D01*
X43119Y190710D01*
X42645Y189890D01*
X42400Y188974D01*
Y188026D01*
X42645Y187110D01*
X43119Y186290D01*
X43790Y185619D01*
X44610Y185145D01*
X45526Y184900D01*
X46474D01*
X47390Y185145D01*
X48210Y185619D01*
X48881Y186290D01*
X49355Y187110D01*
X49600Y188026D01*
Y188974D01*
X49355Y189890D01*
X48881Y190710D01*
X48210Y191381D01*
X47390Y191855D01*
X46474Y192100D01*
D02*
G37*
G36*
X289500Y187000D02*
X285500D01*
Y183000D01*
X285592D01*
X286737Y183307D01*
X287763Y183899D01*
X288601Y184737D01*
X289193Y185763D01*
X289500Y186908D01*
Y187000D01*
D02*
G37*
G36*
X284500D02*
X280500D01*
Y186908D01*
X280807Y185763D01*
X281399Y184737D01*
X282237Y183899D01*
X283263Y183307D01*
X284408Y183000D01*
X284500D01*
Y187000D01*
D02*
G37*
G36*
X157838Y183200D02*
X157162D01*
X156537Y182941D01*
X156059Y182463D01*
X156040Y182418D01*
X149460D01*
X149441Y182463D01*
X148963Y182941D01*
X148338Y183200D01*
X147662D01*
X147037Y182941D01*
X146559Y182463D01*
X146300Y181838D01*
Y181162D01*
X146559Y180537D01*
X147037Y180059D01*
X147662Y179800D01*
X148338D01*
X148963Y180059D01*
X149441Y180537D01*
X149460Y180582D01*
X156040D01*
X156059Y180537D01*
X156537Y180059D01*
X157162Y179800D01*
X157838D01*
X158463Y180059D01*
X158941Y180537D01*
X159200Y181162D01*
Y181838D01*
X158941Y182463D01*
X158463Y182941D01*
X157838Y183200D01*
D02*
G37*
G36*
X178092Y186000D02*
X178000D01*
Y182000D01*
X182000D01*
Y182092D01*
X181693Y183237D01*
X181101Y184263D01*
X180263Y185101D01*
X179237Y185693D01*
X178092Y186000D01*
D02*
G37*
G36*
X177000D02*
X176908D01*
X175763Y185693D01*
X174737Y185101D01*
X173899Y184263D01*
X173307Y183237D01*
X173000Y182092D01*
Y182000D01*
X177000D01*
Y186000D01*
D02*
G37*
G36*
X285592Y182000D02*
X285500D01*
Y178000D01*
X289500D01*
Y178092D01*
X289193Y179237D01*
X288601Y180263D01*
X287763Y181101D01*
X286737Y181693D01*
X285592Y182000D01*
D02*
G37*
G36*
X284500D02*
X284408D01*
X283263Y181693D01*
X282237Y181101D01*
X281399Y180263D01*
X280807Y179237D01*
X280500Y178092D01*
Y178000D01*
X284500D01*
Y182000D01*
D02*
G37*
G36*
X168040Y185600D02*
X166960D01*
X165918Y185321D01*
X164982Y184781D01*
X164219Y184018D01*
X163679Y183082D01*
X163400Y182040D01*
Y180960D01*
X163679Y179918D01*
X164219Y178982D01*
X164982Y178219D01*
X165918Y177679D01*
X166960Y177400D01*
X168040D01*
X169082Y177679D01*
X170018Y178219D01*
X170781Y178982D01*
X171321Y179918D01*
X171600Y180960D01*
Y182040D01*
X171321Y183082D01*
X170781Y184018D01*
X170018Y184781D01*
X169082Y185321D01*
X168040Y185600D01*
D02*
G37*
G36*
X182000Y181000D02*
X178000D01*
Y177000D01*
X178092D01*
X179237Y177307D01*
X180263Y177899D01*
X181101Y178737D01*
X181693Y179763D01*
X182000Y180908D01*
Y181000D01*
D02*
G37*
G36*
X177000D02*
X173000D01*
Y180908D01*
X173307Y179763D01*
X173899Y178737D01*
X174737Y177899D01*
X175763Y177307D01*
X176908Y177000D01*
X177000D01*
Y181000D01*
D02*
G37*
G36*
X115007Y183348D02*
X113993D01*
X113015Y183086D01*
X112137Y182579D01*
X111421Y181863D01*
X110914Y180985D01*
X110652Y180007D01*
Y178993D01*
X110914Y178015D01*
X111421Y177137D01*
X112137Y176421D01*
X113015Y175914D01*
X113993Y175652D01*
X115007D01*
X115985Y175914D01*
X116863Y176421D01*
X117579Y177137D01*
X118086Y178015D01*
X118348Y178993D01*
Y180007D01*
X118086Y180985D01*
X117579Y181863D01*
X116863Y182579D01*
X115985Y183086D01*
X115007Y183348D01*
D02*
G37*
G36*
X289500Y177000D02*
X285500D01*
Y173000D01*
X285592D01*
X286737Y173307D01*
X287763Y173899D01*
X288601Y174737D01*
X289193Y175763D01*
X289500Y176908D01*
Y177000D01*
D02*
G37*
G36*
X284500D02*
X280500D01*
Y176908D01*
X280807Y175763D01*
X281399Y174737D01*
X282237Y173899D01*
X283263Y173307D01*
X284408Y173000D01*
X284500D01*
Y177000D01*
D02*
G37*
G36*
X45092Y170500D02*
X45000D01*
Y166500D01*
X49000D01*
Y166592D01*
X48693Y167737D01*
X48101Y168763D01*
X47263Y169601D01*
X46237Y170193D01*
X45092Y170500D01*
D02*
G37*
G36*
X35092D02*
X35000D01*
Y166500D01*
X39000D01*
Y166592D01*
X38693Y167737D01*
X38101Y168763D01*
X37263Y169601D01*
X36237Y170193D01*
X35092Y170500D01*
D02*
G37*
G36*
X25092D02*
X25000D01*
Y166500D01*
X29000D01*
Y166592D01*
X28693Y167737D01*
X28101Y168763D01*
X27263Y169601D01*
X26237Y170193D01*
X25092Y170500D01*
D02*
G37*
G36*
X44000D02*
X43908D01*
X42763Y170193D01*
X41737Y169601D01*
X40899Y168763D01*
X40307Y167737D01*
X40000Y166592D01*
Y166500D01*
X44000D01*
Y170500D01*
D02*
G37*
G36*
X24000D02*
X23908D01*
X22763Y170193D01*
X21737Y169601D01*
X20899Y168763D01*
X20307Y167737D01*
X20000Y166592D01*
Y166500D01*
X24000D01*
Y170500D01*
D02*
G37*
G36*
X34000D02*
X33908D01*
X32763Y170193D01*
X31737Y169601D01*
X30899Y168763D01*
X30307Y167737D01*
X30000Y166592D01*
Y166500D01*
X34000D01*
Y170500D01*
D02*
G37*
G36*
X115007Y173348D02*
X113993D01*
X113015Y173086D01*
X112137Y172579D01*
X111421Y171863D01*
X110914Y170985D01*
X110652Y170007D01*
Y168993D01*
X110914Y168015D01*
X111421Y167137D01*
X112137Y166421D01*
X113015Y165914D01*
X113993Y165652D01*
X115007D01*
X115985Y165914D01*
X116863Y166421D01*
X117579Y167137D01*
X118086Y168015D01*
X118348Y168993D01*
Y170007D01*
X118086Y170985D01*
X117579Y171863D01*
X116863Y172579D01*
X115985Y173086D01*
X115007Y173348D01*
D02*
G37*
G36*
X285540Y171600D02*
X284460D01*
X283418Y171321D01*
X282483Y170781D01*
X281719Y170018D01*
X281179Y169082D01*
X280900Y168040D01*
Y166960D01*
X281179Y165918D01*
X281719Y164982D01*
X282483Y164219D01*
X283418Y163679D01*
X284460Y163400D01*
X285540D01*
X286582Y163679D01*
X287517Y164219D01*
X288281Y164982D01*
X288821Y165918D01*
X289100Y166960D01*
Y168040D01*
X288821Y169082D01*
X288281Y170018D01*
X287517Y170781D01*
X286582Y171321D01*
X285540Y171600D01*
D02*
G37*
G36*
X55040Y170100D02*
X53960D01*
X52917Y169821D01*
X51982Y169281D01*
X51219Y168517D01*
X50679Y167582D01*
X50400Y166540D01*
Y165460D01*
X50679Y164418D01*
X51219Y163482D01*
X51982Y162719D01*
X52917Y162179D01*
X53960Y161900D01*
X55040D01*
X56082Y162179D01*
X57017Y162719D01*
X57781Y163482D01*
X58321Y164418D01*
X58600Y165460D01*
Y166540D01*
X58321Y167582D01*
X57781Y168517D01*
X57017Y169281D01*
X56082Y169821D01*
X55040Y170100D01*
D02*
G37*
G36*
X49000Y165500D02*
X45000D01*
Y161500D01*
X45092D01*
X46237Y161807D01*
X47263Y162399D01*
X48101Y163237D01*
X48693Y164263D01*
X49000Y165408D01*
Y165500D01*
D02*
G37*
G36*
X44000D02*
X40000D01*
Y165408D01*
X40307Y164263D01*
X40899Y163237D01*
X41737Y162399D01*
X42763Y161807D01*
X43908Y161500D01*
X44000D01*
Y165500D01*
D02*
G37*
G36*
X39000D02*
X35000D01*
Y161500D01*
X35092D01*
X36237Y161807D01*
X37263Y162399D01*
X38101Y163237D01*
X38693Y164263D01*
X39000Y165408D01*
Y165500D01*
D02*
G37*
G36*
X34000D02*
X30000D01*
Y165408D01*
X30307Y164263D01*
X30899Y163237D01*
X31737Y162399D01*
X32763Y161807D01*
X33908Y161500D01*
X34000D01*
Y165500D01*
D02*
G37*
G36*
X29000D02*
X25000D01*
Y161500D01*
X25092D01*
X26237Y161807D01*
X27263Y162399D01*
X28101Y163237D01*
X28693Y164263D01*
X29000Y165408D01*
Y165500D01*
D02*
G37*
G36*
X24000D02*
X20000D01*
Y165408D01*
X20307Y164263D01*
X20899Y163237D01*
X21737Y162399D01*
X22763Y161807D01*
X23908Y161500D01*
X24000D01*
Y165500D01*
D02*
G37*
G36*
X213338Y148700D02*
X212662D01*
X212496Y148631D01*
X201504D01*
X201338Y148700D01*
X200662D01*
X200037Y148441D01*
X199559Y147963D01*
X199300Y147338D01*
Y146662D01*
X199559Y146037D01*
X200037Y145559D01*
X200662Y145300D01*
X201338D01*
X201504Y145369D01*
X212496D01*
X212662Y145300D01*
X213338D01*
X213963Y145559D01*
X214441Y146037D01*
X214700Y146662D01*
Y147338D01*
X214441Y147963D01*
X213963Y148441D01*
X213338Y148700D01*
D02*
G37*
G36*
X114092Y151500D02*
X114000D01*
Y147500D01*
X118000D01*
Y147592D01*
X117693Y148737D01*
X117101Y149763D01*
X116263Y150601D01*
X115237Y151193D01*
X114092Y151500D01*
D02*
G37*
G36*
X113000D02*
X112908D01*
X111763Y151193D01*
X110737Y150601D01*
X109899Y149763D01*
X109307Y148737D01*
X109000Y147592D01*
Y147500D01*
X113000D01*
Y151500D01*
D02*
G37*
G36*
X118000Y146500D02*
X114000D01*
Y142500D01*
X114092D01*
X115237Y142807D01*
X116263Y143399D01*
X117101Y144237D01*
X117693Y145263D01*
X118000Y146408D01*
Y146500D01*
D02*
G37*
G36*
X113000D02*
X109000D01*
Y146408D01*
X109307Y145263D01*
X109899Y144237D01*
X110737Y143399D01*
X111763Y142807D01*
X112908Y142500D01*
X113000D01*
Y146500D01*
D02*
G37*
G36*
X114092Y141500D02*
X114000D01*
Y137500D01*
X118000D01*
Y137592D01*
X117693Y138737D01*
X117101Y139763D01*
X116263Y140601D01*
X115237Y141193D01*
X114092Y141500D01*
D02*
G37*
G36*
X113000D02*
X112908D01*
X111763Y141193D01*
X110737Y140601D01*
X109899Y139763D01*
X109307Y138737D01*
X109000Y137592D01*
Y137500D01*
X113000D01*
Y141500D01*
D02*
G37*
G36*
X118000Y136500D02*
X114000D01*
Y132500D01*
X114092D01*
X115237Y132807D01*
X116263Y133399D01*
X117101Y134237D01*
X117693Y135263D01*
X118000Y136408D01*
Y136500D01*
D02*
G37*
G36*
X113000D02*
X109000D01*
Y136408D01*
X109307Y135263D01*
X109899Y134237D01*
X110737Y133399D01*
X111763Y132807D01*
X112908Y132500D01*
X113000D01*
Y136500D01*
D02*
G37*
G36*
X212838Y131200D02*
X212162D01*
X211537Y130941D01*
X211059Y130463D01*
X211040Y130418D01*
X202960D01*
X202941Y130463D01*
X202463Y130941D01*
X201838Y131200D01*
X201162D01*
X200537Y130941D01*
X200059Y130463D01*
X199800Y129838D01*
Y129162D01*
X200059Y128537D01*
X200537Y128059D01*
X201162Y127800D01*
X201838D01*
X202463Y128059D01*
X202941Y128537D01*
X202960Y128582D01*
X211040D01*
X211059Y128537D01*
X211537Y128059D01*
X212162Y127800D01*
X212838D01*
X213463Y128059D01*
X213941Y128537D01*
X214200Y129162D01*
Y129838D01*
X213941Y130463D01*
X213463Y130941D01*
X212838Y131200D01*
D02*
G37*
G36*
X114092Y131500D02*
X114000D01*
Y127500D01*
X118000D01*
Y127592D01*
X117693Y128737D01*
X117101Y129763D01*
X116263Y130601D01*
X115237Y131193D01*
X114092Y131500D01*
D02*
G37*
G36*
X113000D02*
X112908D01*
X111763Y131193D01*
X110737Y130601D01*
X109899Y129763D01*
X109307Y128737D01*
X109000Y127592D01*
Y127500D01*
X113000D01*
Y131500D01*
D02*
G37*
G36*
X154838Y127700D02*
X154162D01*
X153537Y127441D01*
X153059Y126963D01*
X153040Y126918D01*
X149460D01*
X149441Y126963D01*
X148963Y127441D01*
X148338Y127700D01*
X147662D01*
X147037Y127441D01*
X146559Y126963D01*
X146300Y126338D01*
Y125662D01*
X146559Y125037D01*
X147037Y124559D01*
X147662Y124300D01*
X148338D01*
X148963Y124559D01*
X149441Y125037D01*
X149460Y125082D01*
X153040D01*
X153059Y125037D01*
X153537Y124559D01*
X154162Y124300D01*
X154838D01*
X155463Y124559D01*
X155941Y125037D01*
X156200Y125662D01*
Y126338D01*
X155941Y126963D01*
X155463Y127441D01*
X154838Y127700D01*
D02*
G37*
G36*
X118000Y126500D02*
X114000D01*
Y122500D01*
X114092D01*
X115237Y122807D01*
X116263Y123399D01*
X117101Y124237D01*
X117693Y125263D01*
X118000Y126408D01*
Y126500D01*
D02*
G37*
G36*
X113000D02*
X109000D01*
Y126408D01*
X109307Y125263D01*
X109899Y124237D01*
X110737Y123399D01*
X111763Y122807D01*
X112908Y122500D01*
X113000D01*
Y126500D01*
D02*
G37*
G36*
X66499Y128289D02*
X65501D01*
X64538Y128031D01*
X63674Y127532D01*
X62968Y126827D01*
X62469Y125962D01*
X62211Y124999D01*
Y124001D01*
X62469Y123038D01*
X62968Y122174D01*
X63674Y121468D01*
X64538Y120969D01*
X65501Y120711D01*
X66499D01*
X67462Y120969D01*
X68326Y121468D01*
X69032Y122174D01*
X69531Y123038D01*
X69789Y124001D01*
Y124999D01*
X69531Y125962D01*
X69032Y126827D01*
X68326Y127532D01*
X67462Y128031D01*
X66499Y128289D01*
D02*
G37*
G36*
X114040Y121100D02*
X112960D01*
X111917Y120821D01*
X110983Y120281D01*
X110219Y119518D01*
X109679Y118582D01*
X109400Y117540D01*
Y116460D01*
X109679Y115418D01*
X110219Y114482D01*
X110983Y113719D01*
X111917Y113179D01*
X112960Y112900D01*
X114040D01*
X115083Y113179D01*
X116017Y113719D01*
X116781Y114482D01*
X117321Y115418D01*
X117600Y116460D01*
Y117540D01*
X117321Y118582D01*
X116781Y119518D01*
X116017Y120281D01*
X115083Y120821D01*
X114040Y121100D01*
D02*
G37*
G36*
X66499Y118289D02*
X65501D01*
X64538Y118031D01*
X63674Y117532D01*
X62968Y116826D01*
X62469Y115963D01*
X62211Y114999D01*
Y114001D01*
X62469Y113038D01*
X62968Y112173D01*
X63674Y111468D01*
X64538Y110969D01*
X65501Y110711D01*
X66499D01*
X67462Y110969D01*
X68326Y111468D01*
X69032Y112173D01*
X69324Y112679D01*
X77132D01*
X77390Y112572D01*
X78066D01*
X78691Y112830D01*
X79169Y113309D01*
X79428Y113934D01*
Y114610D01*
X79169Y115235D01*
X78691Y115713D01*
X78066Y115972D01*
X77390D01*
X77317Y115941D01*
X69537D01*
X69531Y115963D01*
X69032Y116826D01*
X68326Y117532D01*
X67462Y118031D01*
X66499Y118289D01*
D02*
G37*
G36*
X279838Y111200D02*
X279162D01*
X278537Y110941D01*
X278059Y110463D01*
X277800Y109838D01*
Y109162D01*
X278059Y108537D01*
X278537Y108059D01*
X278703Y107990D01*
X285990Y100703D01*
X286059Y100537D01*
X286537Y100059D01*
X287162Y99800D01*
X287838D01*
X288463Y100059D01*
X288941Y100537D01*
X289200Y101162D01*
Y101838D01*
X288941Y102463D01*
X288463Y102941D01*
X288297Y103010D01*
X281010Y110297D01*
X280941Y110463D01*
X280463Y110941D01*
X279838Y111200D01*
D02*
G37*
G36*
X177035Y96897D02*
X176359D01*
X175734Y96638D01*
X175256Y96160D01*
X175237Y96115D01*
X162627D01*
X162382Y96360D01*
X161757Y96619D01*
X161081D01*
X160456Y96360D01*
X159978Y95882D01*
X159719Y95257D01*
Y94581D01*
X159978Y93956D01*
X160456Y93478D01*
X161081Y93219D01*
X161757D01*
X162382Y93478D01*
X162860Y93956D01*
X162994Y94279D01*
X175237D01*
X175256Y94234D01*
X175734Y93756D01*
X176359Y93497D01*
X177035D01*
X177660Y93756D01*
X178138Y94234D01*
X178397Y94859D01*
Y95535D01*
X178138Y96160D01*
X177660Y96638D01*
X177035Y96897D01*
D02*
G37*
G36*
X194838Y96700D02*
X194162D01*
X193537Y96441D01*
X193059Y95963D01*
X192800Y95338D01*
Y94662D01*
X193059Y94037D01*
X193537Y93559D01*
X194162Y93300D01*
X194838D01*
X195463Y93559D01*
X195737Y93832D01*
X206436D01*
X206559Y93537D01*
X207037Y93059D01*
X207662Y92800D01*
X208338D01*
X208963Y93059D01*
X209441Y93537D01*
X209700Y94162D01*
Y94838D01*
X209441Y95463D01*
X208963Y95941D01*
X208338Y96200D01*
X207662D01*
X207037Y95941D01*
X206764Y95668D01*
X196063D01*
X195941Y95963D01*
X195463Y96441D01*
X194838Y96700D01*
D02*
G37*
G36*
X167257Y91119D02*
X166581D01*
X165956Y90860D01*
X165478Y90382D01*
X165219Y89757D01*
Y89081D01*
X165478Y88456D01*
X165956Y87978D01*
X166581Y87719D01*
X167257D01*
X167882Y87978D01*
X168184Y88279D01*
X181237D01*
X181256Y88234D01*
X181734Y87756D01*
X182359Y87497D01*
X183035D01*
X183660Y87756D01*
X184138Y88234D01*
X184397Y88859D01*
Y89535D01*
X184138Y90160D01*
X183660Y90638D01*
X183035Y90897D01*
X182359D01*
X181734Y90638D01*
X181256Y90160D01*
X181237Y90115D01*
X168471D01*
X168360Y90382D01*
X167882Y90860D01*
X167257Y91119D01*
D02*
G37*
G36*
X195338Y90700D02*
X194662D01*
X194037Y90441D01*
X193559Y89963D01*
X193300Y89338D01*
Y88662D01*
X193559Y88037D01*
X194037Y87559D01*
X194662Y87300D01*
X195338D01*
X195963Y87559D01*
X196237Y87832D01*
X207937D01*
X208059Y87537D01*
X208537Y87059D01*
X209162Y86800D01*
X209838D01*
X210463Y87059D01*
X210941Y87537D01*
X211200Y88162D01*
Y88838D01*
X210941Y89463D01*
X210463Y89941D01*
X209838Y90200D01*
X209162D01*
X208537Y89941D01*
X208263Y89668D01*
X196563D01*
X196441Y89963D01*
X195963Y90441D01*
X195338Y90700D01*
D02*
G37*
G36*
X33592Y73000D02*
X33500D01*
Y69000D01*
X37500D01*
Y69092D01*
X37193Y70237D01*
X36601Y71263D01*
X35763Y72101D01*
X34737Y72693D01*
X33592Y73000D01*
D02*
G37*
G36*
X43592D02*
X43500D01*
Y69000D01*
X47500D01*
Y69092D01*
X47193Y70237D01*
X46601Y71263D01*
X45763Y72101D01*
X44737Y72693D01*
X43592Y73000D01*
D02*
G37*
G36*
X23592D02*
X23500D01*
Y69000D01*
X27500D01*
Y69092D01*
X27193Y70237D01*
X26601Y71263D01*
X25763Y72101D01*
X24737Y72693D01*
X23592Y73000D01*
D02*
G37*
G36*
X32500D02*
X32408D01*
X31263Y72693D01*
X30237Y72101D01*
X29399Y71263D01*
X28807Y70237D01*
X28500Y69092D01*
Y69000D01*
X32500D01*
Y73000D01*
D02*
G37*
G36*
X42500D02*
X42408D01*
X41263Y72693D01*
X40237Y72101D01*
X39399Y71263D01*
X38807Y70237D01*
X38500Y69092D01*
Y69000D01*
X42500D01*
Y73000D01*
D02*
G37*
G36*
X22500D02*
X22408D01*
X21263Y72693D01*
X20237Y72101D01*
X19399Y71263D01*
X18807Y70237D01*
X18500Y69092D01*
Y69000D01*
X22500D01*
Y73000D01*
D02*
G37*
G36*
X53540Y72600D02*
X52460D01*
X51417Y72321D01*
X50482Y71781D01*
X49719Y71017D01*
X49179Y70082D01*
X48900Y69040D01*
Y67960D01*
X49179Y66918D01*
X49719Y65983D01*
X50482Y65219D01*
X51417Y64679D01*
X52460Y64400D01*
X53540D01*
X54583Y64679D01*
X55518Y65219D01*
X56281Y65983D01*
X56821Y66918D01*
X57100Y67960D01*
Y69040D01*
X56821Y70082D01*
X56281Y71017D01*
X55518Y71781D01*
X54583Y72321D01*
X53540Y72600D01*
D02*
G37*
G36*
X47500Y68000D02*
X43500D01*
Y64000D01*
X43592D01*
X44737Y64307D01*
X45763Y64899D01*
X46601Y65737D01*
X47193Y66763D01*
X47500Y67908D01*
Y68000D01*
D02*
G37*
G36*
X42500D02*
X38500D01*
Y67908D01*
X38807Y66763D01*
X39399Y65737D01*
X40237Y64899D01*
X41263Y64307D01*
X42408Y64000D01*
X42500D01*
Y68000D01*
D02*
G37*
G36*
X37500D02*
X33500D01*
Y64000D01*
X33592D01*
X34737Y64307D01*
X35763Y64899D01*
X36601Y65737D01*
X37193Y66763D01*
X37500Y67908D01*
Y68000D01*
D02*
G37*
G36*
X32500D02*
X28500D01*
Y67908D01*
X28807Y66763D01*
X29399Y65737D01*
X30237Y64899D01*
X31263Y64307D01*
X32408Y64000D01*
X32500D01*
Y68000D01*
D02*
G37*
G36*
X27500D02*
X23500D01*
Y64000D01*
X23592D01*
X24737Y64307D01*
X25763Y64899D01*
X26601Y65737D01*
X27193Y66763D01*
X27500Y67908D01*
Y68000D01*
D02*
G37*
G36*
X22500D02*
X18500D01*
Y67908D01*
X18807Y66763D01*
X19399Y65737D01*
X20237Y64899D01*
X21263Y64307D01*
X22408Y64000D01*
X22500D01*
Y68000D01*
D02*
G37*
G36*
X19237Y44722D02*
X17375D01*
Y41831D01*
X22562D01*
X22512Y42208D01*
X22174Y43026D01*
X21635Y43729D01*
X20932Y44267D01*
X20114Y44606D01*
X19237Y44722D01*
D02*
G37*
G36*
X37938D02*
X36075D01*
Y41831D01*
X41263D01*
X41213Y42208D01*
X40874Y43026D01*
X40336Y43729D01*
X39633Y44267D01*
X38815Y44606D01*
X37938Y44722D01*
D02*
G37*
G36*
X16375D02*
X14512D01*
X13635Y44606D01*
X12817Y44267D01*
X12114Y43729D01*
X11575Y43026D01*
X11237Y42208D01*
X11187Y41831D01*
X16375D01*
Y44722D01*
D02*
G37*
G36*
X35075D02*
X33213D01*
X32335Y44606D01*
X31518Y44267D01*
X30815Y43729D01*
X30276Y43026D01*
X29937Y42208D01*
X29888Y41831D01*
X35075D01*
Y44722D01*
D02*
G37*
G36*
X230527Y41500D02*
X230500D01*
Y38000D01*
X234000D01*
Y38027D01*
X233727Y39044D01*
X233201Y39956D01*
X232456Y40701D01*
X231544Y41227D01*
X230527Y41500D01*
D02*
G37*
G36*
X220527D02*
X220500D01*
Y38000D01*
X224000D01*
Y38027D01*
X223727Y39044D01*
X223201Y39956D01*
X222456Y40701D01*
X221544Y41227D01*
X220527Y41500D01*
D02*
G37*
G36*
X229500D02*
X229473D01*
X228456Y41227D01*
X227544Y40701D01*
X226799Y39956D01*
X226273Y39044D01*
X226000Y38027D01*
Y38000D01*
X229500D01*
Y41500D01*
D02*
G37*
G36*
X219500D02*
X219473D01*
X218456Y41227D01*
X217544Y40701D01*
X216799Y39956D01*
X216273Y39044D01*
X216000Y38027D01*
Y38000D01*
X219500D01*
Y41500D01*
D02*
G37*
G36*
X41263Y40831D02*
X36075D01*
Y37939D01*
X37938D01*
X38815Y38055D01*
X39633Y38394D01*
X40336Y38933D01*
X40874Y39635D01*
X41213Y40453D01*
X41263Y40831D01*
D02*
G37*
G36*
X35075D02*
X29888D01*
X29937Y40453D01*
X30276Y39635D01*
X30815Y38933D01*
X31518Y38394D01*
X32335Y38055D01*
X33213Y37939D01*
X35075D01*
Y40831D01*
D02*
G37*
G36*
X22562D02*
X17375D01*
Y37939D01*
X19237D01*
X20114Y38055D01*
X20932Y38394D01*
X21635Y38933D01*
X22174Y39635D01*
X22512Y40453D01*
X22562Y40831D01*
D02*
G37*
G36*
X16375D02*
X11187D01*
X11237Y40453D01*
X11575Y39635D01*
X12114Y38933D01*
X12817Y38394D01*
X13635Y38055D01*
X14512Y37939D01*
X16375D01*
Y40831D01*
D02*
G37*
G36*
X310474Y41100D02*
X309526D01*
X308610Y40855D01*
X307790Y40381D01*
X307119Y39710D01*
X306645Y38890D01*
X306400Y37974D01*
Y37026D01*
X306645Y36110D01*
X307119Y35290D01*
X307790Y34619D01*
X308610Y34145D01*
X309526Y33900D01*
X310474D01*
X311390Y34145D01*
X312210Y34619D01*
X312881Y35290D01*
X313355Y36110D01*
X313600Y37026D01*
Y37974D01*
X313355Y38890D01*
X312881Y39710D01*
X312210Y40381D01*
X311390Y40855D01*
X310474Y41100D01*
D02*
G37*
G36*
X300474D02*
X299526D01*
X298610Y40855D01*
X297790Y40381D01*
X297119Y39710D01*
X296645Y38890D01*
X296400Y37974D01*
Y37026D01*
X296645Y36110D01*
X297119Y35290D01*
X297790Y34619D01*
X298610Y34145D01*
X299526Y33900D01*
X300474D01*
X301390Y34145D01*
X302210Y34619D01*
X302881Y35290D01*
X303355Y36110D01*
X303600Y37026D01*
Y37974D01*
X303355Y38890D01*
X302881Y39710D01*
X302210Y40381D01*
X301390Y40855D01*
X300474Y41100D01*
D02*
G37*
G36*
X290474D02*
X289526D01*
X288610Y40855D01*
X287790Y40381D01*
X287119Y39710D01*
X286645Y38890D01*
X286400Y37974D01*
Y37026D01*
X286645Y36110D01*
X287119Y35290D01*
X287790Y34619D01*
X288610Y34145D01*
X289526Y33900D01*
X290474D01*
X291390Y34145D01*
X292210Y34619D01*
X292881Y35290D01*
X293355Y36110D01*
X293600Y37026D01*
Y37974D01*
X293355Y38890D01*
X292881Y39710D01*
X292210Y40381D01*
X291390Y40855D01*
X290474Y41100D01*
D02*
G37*
G36*
X280474D02*
X279526D01*
X278610Y40855D01*
X277790Y40381D01*
X277119Y39710D01*
X276645Y38890D01*
X276400Y37974D01*
Y37026D01*
X276645Y36110D01*
X277119Y35290D01*
X277790Y34619D01*
X278610Y34145D01*
X279526Y33900D01*
X280474D01*
X281390Y34145D01*
X282210Y34619D01*
X282881Y35290D01*
X283355Y36110D01*
X283600Y37026D01*
Y37974D01*
X283355Y38890D01*
X282881Y39710D01*
X282210Y40381D01*
X281390Y40855D01*
X280474Y41100D01*
D02*
G37*
G36*
X270474D02*
X269526D01*
X268610Y40855D01*
X267790Y40381D01*
X267119Y39710D01*
X266645Y38890D01*
X266400Y37974D01*
Y37026D01*
X266645Y36110D01*
X267119Y35290D01*
X267790Y34619D01*
X268610Y34145D01*
X269526Y33900D01*
X270474D01*
X271390Y34145D01*
X272210Y34619D01*
X272881Y35290D01*
X273355Y36110D01*
X273600Y37026D01*
Y37974D01*
X273355Y38890D01*
X272881Y39710D01*
X272210Y40381D01*
X271390Y40855D01*
X270474Y41100D01*
D02*
G37*
G36*
X260474D02*
X259526D01*
X258610Y40855D01*
X257790Y40381D01*
X257119Y39710D01*
X256645Y38890D01*
X256400Y37974D01*
Y37026D01*
X256645Y36110D01*
X257119Y35290D01*
X257790Y34619D01*
X258610Y34145D01*
X259526Y33900D01*
X260474D01*
X261390Y34145D01*
X262210Y34619D01*
X262881Y35290D01*
X263355Y36110D01*
X263600Y37026D01*
Y37974D01*
X263355Y38890D01*
X262881Y39710D01*
X262210Y40381D01*
X261390Y40855D01*
X260474Y41100D01*
D02*
G37*
G36*
X240474D02*
X239526D01*
X238610Y40855D01*
X237790Y40381D01*
X237119Y39710D01*
X236645Y38890D01*
X236400Y37974D01*
Y37026D01*
X236645Y36110D01*
X237119Y35290D01*
X237790Y34619D01*
X238610Y34145D01*
X239526Y33900D01*
X240474D01*
X241390Y34145D01*
X242210Y34619D01*
X242881Y35290D01*
X243355Y36110D01*
X243600Y37026D01*
Y37974D01*
X243355Y38890D01*
X242881Y39710D01*
X242210Y40381D01*
X241390Y40855D01*
X240474Y41100D01*
D02*
G37*
G36*
X210474D02*
X209526D01*
X208610Y40855D01*
X207790Y40381D01*
X207119Y39710D01*
X206645Y38890D01*
X206400Y37974D01*
Y37026D01*
X206645Y36110D01*
X207119Y35290D01*
X207790Y34619D01*
X208610Y34145D01*
X209526Y33900D01*
X210474D01*
X211390Y34145D01*
X212210Y34619D01*
X212881Y35290D01*
X213355Y36110D01*
X213600Y37026D01*
Y37974D01*
X213355Y38890D01*
X212881Y39710D01*
X212210Y40381D01*
X211390Y40855D01*
X210474Y41100D01*
D02*
G37*
G36*
X200474D02*
X199526D01*
X198610Y40855D01*
X197790Y40381D01*
X197119Y39710D01*
X196645Y38890D01*
X196400Y37974D01*
Y37026D01*
X196645Y36110D01*
X197119Y35290D01*
X197790Y34619D01*
X198610Y34145D01*
X199526Y33900D01*
X200474D01*
X201390Y34145D01*
X202210Y34619D01*
X202881Y35290D01*
X203355Y36110D01*
X203600Y37026D01*
Y37974D01*
X203355Y38890D01*
X202881Y39710D01*
X202210Y40381D01*
X201390Y40855D01*
X200474Y41100D01*
D02*
G37*
G36*
X190474D02*
X189526D01*
X188610Y40855D01*
X187790Y40381D01*
X187119Y39710D01*
X186645Y38890D01*
X186400Y37974D01*
Y37026D01*
X186645Y36110D01*
X187119Y35290D01*
X187790Y34619D01*
X188610Y34145D01*
X189526Y33900D01*
X190474D01*
X191390Y34145D01*
X192210Y34619D01*
X192881Y35290D01*
X193355Y36110D01*
X193600Y37026D01*
Y37974D01*
X193355Y38890D01*
X192881Y39710D01*
X192210Y40381D01*
X191390Y40855D01*
X190474Y41100D01*
D02*
G37*
G36*
X180474D02*
X179526D01*
X178610Y40855D01*
X177790Y40381D01*
X177119Y39710D01*
X176645Y38890D01*
X176400Y37974D01*
Y37026D01*
X176645Y36110D01*
X177119Y35290D01*
X177790Y34619D01*
X178610Y34145D01*
X179526Y33900D01*
X180474D01*
X181390Y34145D01*
X182210Y34619D01*
X182881Y35290D01*
X183355Y36110D01*
X183600Y37026D01*
Y37974D01*
X183355Y38890D01*
X182881Y39710D01*
X182210Y40381D01*
X181390Y40855D01*
X180474Y41100D01*
D02*
G37*
G36*
X170474D02*
X169526D01*
X168610Y40855D01*
X167790Y40381D01*
X167119Y39710D01*
X166645Y38890D01*
X166400Y37974D01*
Y37026D01*
X166645Y36110D01*
X167119Y35290D01*
X167790Y34619D01*
X168610Y34145D01*
X169526Y33900D01*
X170474D01*
X171390Y34145D01*
X172210Y34619D01*
X172881Y35290D01*
X173355Y36110D01*
X173600Y37026D01*
Y37974D01*
X173355Y38890D01*
X172881Y39710D01*
X172210Y40381D01*
X171390Y40855D01*
X170474Y41100D01*
D02*
G37*
G36*
X234000Y37000D02*
X230500D01*
Y33500D01*
X230527D01*
X231544Y33773D01*
X232456Y34299D01*
X233201Y35044D01*
X233727Y35956D01*
X234000Y36973D01*
Y37000D01*
D02*
G37*
G36*
X229500D02*
X226000D01*
Y36973D01*
X226273Y35956D01*
X226799Y35044D01*
X227544Y34299D01*
X228456Y33773D01*
X229473Y33500D01*
X229500D01*
Y37000D01*
D02*
G37*
G36*
X224000D02*
X220500D01*
Y33500D01*
X220527D01*
X221544Y33773D01*
X222456Y34299D01*
X223201Y35044D01*
X223727Y35956D01*
X224000Y36973D01*
Y37000D01*
D02*
G37*
G36*
X219500D02*
X216000D01*
Y36973D01*
X216273Y35956D01*
X216799Y35044D01*
X217544Y34299D01*
X218456Y33773D01*
X219473Y33500D01*
X219500D01*
Y37000D01*
D02*
G37*
G36*
X39515Y35868D02*
X38735D01*
X37982Y35666D01*
X37307Y35276D01*
X36755Y34724D01*
X36365Y34049D01*
X36163Y33296D01*
Y32729D01*
X35733Y32436D01*
X35686Y32427D01*
X35530Y32517D01*
X34776Y32719D01*
X33996D01*
X33243Y32517D01*
X32568Y32127D01*
X32016Y31575D01*
X31626Y30900D01*
X31424Y30147D01*
Y29367D01*
X31626Y28613D01*
X32016Y27938D01*
X32568Y27386D01*
X33243Y26996D01*
X33729Y26866D01*
Y26348D01*
X33243Y26218D01*
X32568Y25828D01*
X32016Y25276D01*
X31626Y24601D01*
X31424Y23848D01*
Y23068D01*
X31626Y22314D01*
X32016Y21639D01*
X32568Y21087D01*
X33243Y20697D01*
X33996Y20495D01*
X34776D01*
X35263Y20626D01*
X35737Y20312D01*
X35763Y20262D01*
Y19865D01*
X35992Y19010D01*
X36435Y18243D01*
X37061Y17617D01*
X37828Y17175D01*
X38625Y16961D01*
Y20308D01*
X39125D01*
Y20808D01*
X42472D01*
X42259Y21605D01*
X41816Y22372D01*
X41190Y22998D01*
X40480Y23408D01*
X40434Y23645D01*
X40450Y23951D01*
X40944Y24236D01*
X41496Y24788D01*
X41886Y25463D01*
X42088Y26217D01*
Y26997D01*
X41886Y27750D01*
X41496Y28425D01*
X40944Y28977D01*
X40269Y29367D01*
X39782Y29497D01*
Y30015D01*
X40269Y30145D01*
X40944Y30535D01*
X41496Y31087D01*
X41886Y31762D01*
X42088Y32516D01*
Y33296D01*
X41886Y34049D01*
X41496Y34724D01*
X40944Y35276D01*
X40269Y35666D01*
X39515Y35868D01*
D02*
G37*
G36*
X42472Y19808D02*
X39625D01*
Y16961D01*
X40423Y17175D01*
X41190Y17617D01*
X41816Y18243D01*
X42259Y19010D01*
X42472Y19808D01*
D02*
G37*
G36*
X19237Y15431D02*
X17375D01*
Y12540D01*
X22562D01*
X22512Y12917D01*
X22174Y13735D01*
X21635Y14437D01*
X20932Y14976D01*
X20114Y15315D01*
X19237Y15431D01*
D02*
G37*
G36*
X37938D02*
X36075D01*
Y12540D01*
X41263D01*
X41213Y12917D01*
X40874Y13735D01*
X40336Y14437D01*
X39633Y14976D01*
X38815Y15315D01*
X37938Y15431D01*
D02*
G37*
G36*
X16375D02*
X14512D01*
X13635Y15315D01*
X12817Y14976D01*
X12114Y14437D01*
X11575Y13735D01*
X11237Y12917D01*
X11187Y12540D01*
X16375D01*
Y15431D01*
D02*
G37*
G36*
X35075D02*
X33213D01*
X32335Y15315D01*
X31518Y14976D01*
X30815Y14437D01*
X30276Y13735D01*
X29937Y12917D01*
X29888Y12540D01*
X35075D01*
Y15431D01*
D02*
G37*
G36*
X41263Y11540D02*
X36075D01*
Y8648D01*
X37938D01*
X38815Y8764D01*
X39633Y9103D01*
X40336Y9642D01*
X40874Y10344D01*
X41213Y11162D01*
X41263Y11540D01*
D02*
G37*
G36*
X35075D02*
X29888D01*
X29937Y11162D01*
X30276Y10344D01*
X30815Y9642D01*
X31518Y9103D01*
X32335Y8764D01*
X33213Y8648D01*
X35075D01*
Y11540D01*
D02*
G37*
G36*
X22562D02*
X17375D01*
Y8648D01*
X19237D01*
X20114Y8764D01*
X20932Y9103D01*
X21635Y9642D01*
X22174Y10344D01*
X22512Y11162D01*
X22562Y11540D01*
D02*
G37*
G36*
X16375D02*
X11187D01*
X11237Y11162D01*
X11575Y10344D01*
X12114Y9642D01*
X12817Y9103D01*
X13635Y8764D01*
X14512Y8648D01*
X16375D01*
Y11540D01*
D02*
G37*
G36*
X230527Y11500D02*
X230500D01*
Y8000D01*
X234000D01*
Y8027D01*
X233727Y9044D01*
X233201Y9956D01*
X232456Y10701D01*
X231544Y11227D01*
X230527Y11500D01*
D02*
G37*
G36*
X210527D02*
X210500D01*
Y8000D01*
X214000D01*
Y8027D01*
X213727Y9044D01*
X213201Y9956D01*
X212456Y10701D01*
X211544Y11227D01*
X210527Y11500D01*
D02*
G37*
G36*
X200527D02*
X200500D01*
Y8000D01*
X204000D01*
Y8027D01*
X203727Y9044D01*
X203201Y9956D01*
X202456Y10701D01*
X201544Y11227D01*
X200527Y11500D01*
D02*
G37*
G36*
X190527D02*
X190500D01*
Y8000D01*
X194000D01*
Y8027D01*
X193727Y9044D01*
X193201Y9956D01*
X192456Y10701D01*
X191544Y11227D01*
X190527Y11500D01*
D02*
G37*
G36*
X180527D02*
X180500D01*
Y8000D01*
X184000D01*
Y8027D01*
X183727Y9044D01*
X183201Y9956D01*
X182456Y10701D01*
X181544Y11227D01*
X180527Y11500D01*
D02*
G37*
G36*
X170527D02*
X170500D01*
Y8000D01*
X174000D01*
Y8027D01*
X173727Y9044D01*
X173201Y9956D01*
X172456Y10701D01*
X171544Y11227D01*
X170527Y11500D01*
D02*
G37*
G36*
X240527D02*
X240500D01*
Y8000D01*
X244000D01*
Y8027D01*
X243727Y9044D01*
X243201Y9956D01*
X242456Y10701D01*
X241544Y11227D01*
X240527Y11500D01*
D02*
G37*
G36*
X220527D02*
X220500D01*
Y8000D01*
X224000D01*
Y8027D01*
X223727Y9044D01*
X223201Y9956D01*
X222456Y10701D01*
X221544Y11227D01*
X220527Y11500D01*
D02*
G37*
G36*
X310527D02*
X310500D01*
Y8000D01*
X314000D01*
Y8027D01*
X313727Y9044D01*
X313201Y9956D01*
X312456Y10701D01*
X311544Y11227D01*
X310527Y11500D01*
D02*
G37*
G36*
X309500D02*
X309473D01*
X308456Y11227D01*
X307544Y10701D01*
X306799Y9956D01*
X306273Y9044D01*
X306000Y8027D01*
Y8000D01*
X309500D01*
Y11500D01*
D02*
G37*
G36*
X300527D02*
X300500D01*
Y8000D01*
X304000D01*
Y8027D01*
X303727Y9044D01*
X303201Y9956D01*
X302456Y10701D01*
X301544Y11227D01*
X300527Y11500D01*
D02*
G37*
G36*
X299500D02*
X299473D01*
X298456Y11227D01*
X297544Y10701D01*
X296799Y9956D01*
X296273Y9044D01*
X296000Y8027D01*
Y8000D01*
X299500D01*
Y11500D01*
D02*
G37*
G36*
X290527D02*
X290500D01*
Y8000D01*
X294000D01*
Y8027D01*
X293727Y9044D01*
X293201Y9956D01*
X292456Y10701D01*
X291544Y11227D01*
X290527Y11500D01*
D02*
G37*
G36*
X289500D02*
X289473D01*
X288456Y11227D01*
X287544Y10701D01*
X286799Y9956D01*
X286273Y9044D01*
X286000Y8027D01*
Y8000D01*
X289500D01*
Y11500D01*
D02*
G37*
G36*
X280527D02*
X280500D01*
Y8000D01*
X284000D01*
Y8027D01*
X283727Y9044D01*
X283201Y9956D01*
X282456Y10701D01*
X281544Y11227D01*
X280527Y11500D01*
D02*
G37*
G36*
X279500D02*
X279473D01*
X278456Y11227D01*
X277544Y10701D01*
X276799Y9956D01*
X276273Y9044D01*
X276000Y8027D01*
Y8000D01*
X279500D01*
Y11500D01*
D02*
G37*
G36*
X270527D02*
X270500D01*
Y8000D01*
X274000D01*
Y8027D01*
X273727Y9044D01*
X273201Y9956D01*
X272456Y10701D01*
X271544Y11227D01*
X270527Y11500D01*
D02*
G37*
G36*
X269500D02*
X269473D01*
X268456Y11227D01*
X267544Y10701D01*
X266799Y9956D01*
X266273Y9044D01*
X266000Y8027D01*
Y8000D01*
X269500D01*
Y11500D01*
D02*
G37*
G36*
X260527D02*
X260500D01*
Y8000D01*
X264000D01*
Y8027D01*
X263727Y9044D01*
X263201Y9956D01*
X262456Y10701D01*
X261544Y11227D01*
X260527Y11500D01*
D02*
G37*
G36*
X259500D02*
X259473D01*
X258456Y11227D01*
X257544Y10701D01*
X256799Y9956D01*
X256273Y9044D01*
X256000Y8027D01*
Y8000D01*
X259500D01*
Y11500D01*
D02*
G37*
G36*
X229500D02*
X229473D01*
X228456Y11227D01*
X227544Y10701D01*
X226799Y9956D01*
X226273Y9044D01*
X226000Y8027D01*
Y8000D01*
X229500D01*
Y11500D01*
D02*
G37*
G36*
X209500D02*
X209473D01*
X208456Y11227D01*
X207544Y10701D01*
X206799Y9956D01*
X206273Y9044D01*
X206000Y8027D01*
Y8000D01*
X209500D01*
Y11500D01*
D02*
G37*
G36*
X199500D02*
X199473D01*
X198456Y11227D01*
X197544Y10701D01*
X196799Y9956D01*
X196273Y9044D01*
X196000Y8027D01*
Y8000D01*
X199500D01*
Y11500D01*
D02*
G37*
G36*
X189500D02*
X189473D01*
X188456Y11227D01*
X187544Y10701D01*
X186799Y9956D01*
X186273Y9044D01*
X186000Y8027D01*
Y8000D01*
X189500D01*
Y11500D01*
D02*
G37*
G36*
X179500D02*
X179473D01*
X178456Y11227D01*
X177544Y10701D01*
X176799Y9956D01*
X176273Y9044D01*
X176000Y8027D01*
Y8000D01*
X179500D01*
Y11500D01*
D02*
G37*
G36*
X169500D02*
X169473D01*
X168456Y11227D01*
X167544Y10701D01*
X166799Y9956D01*
X166273Y9044D01*
X166000Y8027D01*
Y8000D01*
X169500D01*
Y11500D01*
D02*
G37*
G36*
X219500D02*
X219473D01*
X218456Y11227D01*
X217544Y10701D01*
X216799Y9956D01*
X216273Y9044D01*
X216000Y8027D01*
Y8000D01*
X219500D01*
Y11500D01*
D02*
G37*
G36*
X239500D02*
X239473D01*
X238456Y11227D01*
X237544Y10701D01*
X236799Y9956D01*
X236273Y9044D01*
X236000Y8027D01*
Y8000D01*
X239500D01*
Y11500D01*
D02*
G37*
G36*
X314000Y7000D02*
X310500D01*
Y3500D01*
X310527D01*
X311544Y3773D01*
X312456Y4299D01*
X313201Y5044D01*
X313727Y5956D01*
X314000Y6973D01*
Y7000D01*
D02*
G37*
G36*
X309500D02*
X306000D01*
Y6973D01*
X306273Y5956D01*
X306799Y5044D01*
X307544Y4299D01*
X308456Y3773D01*
X309473Y3500D01*
X309500D01*
Y7000D01*
D02*
G37*
G36*
X304000D02*
X300500D01*
Y3500D01*
X300527D01*
X301544Y3773D01*
X302456Y4299D01*
X303201Y5044D01*
X303727Y5956D01*
X304000Y6973D01*
Y7000D01*
D02*
G37*
G36*
X299500D02*
X296000D01*
Y6973D01*
X296273Y5956D01*
X296799Y5044D01*
X297544Y4299D01*
X298456Y3773D01*
X299473Y3500D01*
X299500D01*
Y7000D01*
D02*
G37*
G36*
X294000D02*
X290500D01*
Y3500D01*
X290527D01*
X291544Y3773D01*
X292456Y4299D01*
X293201Y5044D01*
X293727Y5956D01*
X294000Y6973D01*
Y7000D01*
D02*
G37*
G36*
X289500D02*
X286000D01*
Y6973D01*
X286273Y5956D01*
X286799Y5044D01*
X287544Y4299D01*
X288456Y3773D01*
X289473Y3500D01*
X289500D01*
Y7000D01*
D02*
G37*
G36*
X284000D02*
X280500D01*
Y3500D01*
X280527D01*
X281544Y3773D01*
X282456Y4299D01*
X283201Y5044D01*
X283727Y5956D01*
X284000Y6973D01*
Y7000D01*
D02*
G37*
G36*
X279500D02*
X276000D01*
Y6973D01*
X276273Y5956D01*
X276799Y5044D01*
X277544Y4299D01*
X278456Y3773D01*
X279473Y3500D01*
X279500D01*
Y7000D01*
D02*
G37*
G36*
X274000D02*
X270500D01*
Y3500D01*
X270527D01*
X271544Y3773D01*
X272456Y4299D01*
X273201Y5044D01*
X273727Y5956D01*
X274000Y6973D01*
Y7000D01*
D02*
G37*
G36*
X269500D02*
X266000D01*
Y6973D01*
X266273Y5956D01*
X266799Y5044D01*
X267544Y4299D01*
X268456Y3773D01*
X269473Y3500D01*
X269500D01*
Y7000D01*
D02*
G37*
G36*
X264000D02*
X260500D01*
Y3500D01*
X260527D01*
X261544Y3773D01*
X262456Y4299D01*
X263201Y5044D01*
X263727Y5956D01*
X264000Y6973D01*
Y7000D01*
D02*
G37*
G36*
X259500D02*
X256000D01*
Y6973D01*
X256273Y5956D01*
X256799Y5044D01*
X257544Y4299D01*
X258456Y3773D01*
X259473Y3500D01*
X259500D01*
Y7000D01*
D02*
G37*
G36*
X244000D02*
X240500D01*
Y3500D01*
X240527D01*
X241544Y3773D01*
X242456Y4299D01*
X243201Y5044D01*
X243727Y5956D01*
X244000Y6973D01*
Y7000D01*
D02*
G37*
G36*
X239500D02*
X236000D01*
Y6973D01*
X236273Y5956D01*
X236799Y5044D01*
X237544Y4299D01*
X238456Y3773D01*
X239473Y3500D01*
X239500D01*
Y7000D01*
D02*
G37*
G36*
X234000D02*
X230500D01*
Y3500D01*
X230527D01*
X231544Y3773D01*
X232456Y4299D01*
X233201Y5044D01*
X233727Y5956D01*
X234000Y6973D01*
Y7000D01*
D02*
G37*
G36*
X229500D02*
X226000D01*
Y6973D01*
X226273Y5956D01*
X226799Y5044D01*
X227544Y4299D01*
X228456Y3773D01*
X229473Y3500D01*
X229500D01*
Y7000D01*
D02*
G37*
G36*
X224000D02*
X220500D01*
Y3500D01*
X220527D01*
X221544Y3773D01*
X222456Y4299D01*
X223201Y5044D01*
X223727Y5956D01*
X224000Y6973D01*
Y7000D01*
D02*
G37*
G36*
X219500D02*
X216000D01*
Y6973D01*
X216273Y5956D01*
X216799Y5044D01*
X217544Y4299D01*
X218456Y3773D01*
X219473Y3500D01*
X219500D01*
Y7000D01*
D02*
G37*
G36*
X214000D02*
X210500D01*
Y3500D01*
X210527D01*
X211544Y3773D01*
X212456Y4299D01*
X213201Y5044D01*
X213727Y5956D01*
X214000Y6973D01*
Y7000D01*
D02*
G37*
G36*
X209500D02*
X206000D01*
Y6973D01*
X206273Y5956D01*
X206799Y5044D01*
X207544Y4299D01*
X208456Y3773D01*
X209473Y3500D01*
X209500D01*
Y7000D01*
D02*
G37*
G36*
X204000D02*
X200500D01*
Y3500D01*
X200527D01*
X201544Y3773D01*
X202456Y4299D01*
X203201Y5044D01*
X203727Y5956D01*
X204000Y6973D01*
Y7000D01*
D02*
G37*
G36*
X199500D02*
X196000D01*
Y6973D01*
X196273Y5956D01*
X196799Y5044D01*
X197544Y4299D01*
X198456Y3773D01*
X199473Y3500D01*
X199500D01*
Y7000D01*
D02*
G37*
G36*
X194000D02*
X190500D01*
Y3500D01*
X190527D01*
X191544Y3773D01*
X192456Y4299D01*
X193201Y5044D01*
X193727Y5956D01*
X194000Y6973D01*
Y7000D01*
D02*
G37*
G36*
X189500D02*
X186000D01*
Y6973D01*
X186273Y5956D01*
X186799Y5044D01*
X187544Y4299D01*
X188456Y3773D01*
X189473Y3500D01*
X189500D01*
Y7000D01*
D02*
G37*
G36*
X184000D02*
X180500D01*
Y3500D01*
X180527D01*
X181544Y3773D01*
X182456Y4299D01*
X183201Y5044D01*
X183727Y5956D01*
X184000Y6973D01*
Y7000D01*
D02*
G37*
G36*
X179500D02*
X176000D01*
Y6973D01*
X176273Y5956D01*
X176799Y5044D01*
X177544Y4299D01*
X178456Y3773D01*
X179473Y3500D01*
X179500D01*
Y7000D01*
D02*
G37*
G36*
X174000D02*
X170500D01*
Y3500D01*
X170527D01*
X171544Y3773D01*
X172456Y4299D01*
X173201Y5044D01*
X173727Y5956D01*
X174000Y6973D01*
Y7000D01*
D02*
G37*
G36*
X169500D02*
X166000D01*
Y6973D01*
X166273Y5956D01*
X166799Y5044D01*
X167544Y4299D01*
X168456Y3773D01*
X169473Y3500D01*
X169500D01*
Y7000D01*
D02*
G37*
%LPD*%
D10*
X148000Y181500D02*
X157500D01*
X194750Y94750D02*
X207750D01*
X208000Y94500D01*
X166919Y89419D02*
X167141Y89197D01*
X194500Y95000D02*
X194750Y94750D01*
X167141Y89197D02*
X182697D01*
X195000Y89000D02*
X195250Y88750D01*
X209250D01*
X201500Y129500D02*
X212500D01*
X209250Y88750D02*
X209500Y88500D01*
X148000Y126000D02*
X154500D01*
X161419Y94919D02*
X161697Y95197D01*
X176697D01*
D11*
X201000Y147000D02*
X213000D01*
X279500Y109500D02*
X287500Y101500D01*
X77690Y114310D02*
X77728Y114272D01*
X66190Y114310D02*
X77690D01*
X66000Y114500D02*
X66190Y114310D01*
D59*
X260000Y7500D02*
D03*
X270000D02*
D03*
X280000D02*
D03*
X290000D02*
D03*
X300000D02*
D03*
X310000D02*
D03*
X170000D02*
D03*
X180000D02*
D03*
X190000D02*
D03*
X200000D02*
D03*
X210000D02*
D03*
X220000D02*
D03*
X230000D02*
D03*
X240000D02*
D03*
X170000Y37500D02*
D03*
X180000D02*
D03*
X190000D02*
D03*
X200000D02*
D03*
X210000D02*
D03*
X220000D02*
D03*
X230000D02*
D03*
X240000D02*
D03*
X260000D02*
D03*
X270000D02*
D03*
X280000D02*
D03*
X290000D02*
D03*
X300000D02*
D03*
X310000D02*
D03*
X224000Y227500D02*
D03*
X214000D02*
D03*
X204000D02*
D03*
X194000D02*
D03*
X184000D02*
D03*
X174000D02*
D03*
X164000D02*
D03*
X154000D02*
D03*
X144000D02*
D03*
X134000D02*
D03*
X46000Y188500D02*
D03*
X56000D02*
D03*
X310000Y227500D02*
D03*
X300000D02*
D03*
X290000D02*
D03*
X280000D02*
D03*
X270000D02*
D03*
X260000D02*
D03*
X250000D02*
D03*
X240000D02*
D03*
X134000Y257500D02*
D03*
X144000D02*
D03*
X154000D02*
D03*
X164000D02*
D03*
X174000D02*
D03*
X184000D02*
D03*
X194000D02*
D03*
X204000D02*
D03*
X214000D02*
D03*
X224000D02*
D03*
X240000D02*
D03*
X250000D02*
D03*
X260000D02*
D03*
X270000D02*
D03*
X280000D02*
D03*
X290000D02*
D03*
X300000D02*
D03*
X310000D02*
D03*
D60*
X43000Y68500D02*
D03*
X53000D02*
D03*
X23000D02*
D03*
X33000D02*
D03*
X167500Y201500D02*
D03*
X177500D02*
D03*
X167500Y191500D02*
D03*
X177500D02*
D03*
X167500Y181500D02*
D03*
X177500D02*
D03*
X44500Y166000D02*
D03*
X54500D02*
D03*
X24500D02*
D03*
X34500D02*
D03*
X285000Y187500D02*
D03*
Y197500D02*
D03*
Y167500D02*
D03*
Y177500D02*
D03*
X113500Y137000D02*
D03*
Y147000D02*
D03*
Y117000D02*
D03*
Y127000D02*
D03*
D61*
X16875Y41331D02*
D03*
X35575D02*
D03*
Y12040D02*
D03*
X16875D02*
D03*
D62*
X39125Y20308D02*
D03*
Y26607D02*
D03*
X34386Y23458D02*
D03*
Y29757D02*
D03*
X39125Y32906D02*
D03*
D63*
X66000Y114500D02*
D03*
Y124500D02*
D03*
D64*
X46780Y220193D02*
D03*
D65*
X33000Y238500D02*
D03*
X56622D02*
D03*
D66*
X114500Y169500D02*
D03*
Y179500D02*
D03*
Y189500D02*
D03*
D67*
X86500Y222000D02*
D03*
X310500Y102000D02*
D03*
X310000Y177000D02*
D03*
X106500Y33000D02*
D03*
X68000Y28000D02*
D03*
X91500Y25000D02*
D03*
X97000Y75740D02*
D03*
X51500Y108500D02*
D03*
X279500Y109500D02*
D03*
X267500Y125500D02*
D03*
X287500Y101500D02*
D03*
X249500Y153500D02*
D03*
X233500Y137600D02*
D03*
Y131400D02*
D03*
X214500Y134500D02*
D03*
X77728Y114272D02*
D03*
X148000Y181500D02*
D03*
X112000Y226500D02*
D03*
X17600Y103000D02*
D03*
X39000Y155000D02*
D03*
X32000Y87500D02*
D03*
X22500Y132500D02*
D03*
X267500Y162500D02*
D03*
X267969Y169000D02*
D03*
X193500Y177000D02*
D03*
X157500Y181500D02*
D03*
X251000Y146000D02*
D03*
X176697Y95197D02*
D03*
X194500Y95000D02*
D03*
X209500Y88500D02*
D03*
X182697Y89197D02*
D03*
X208000Y94500D02*
D03*
X195000Y89000D02*
D03*
X161419Y94919D02*
D03*
X166919Y89419D02*
D03*
X105500Y65500D02*
D03*
X101500Y52000D02*
D03*
X201500Y129500D02*
D03*
X201000Y147000D02*
D03*
X154500Y126000D02*
D03*
X182500Y133500D02*
D03*
X212500Y129500D02*
D03*
X182500Y144000D02*
D03*
X213000Y147000D02*
D03*
X148000Y126000D02*
D03*
X147000Y51000D02*
D03*
M02*
